<svg xmlns="http://www.w3.org/2000/svg" xmlns:xlink="http://www.w3.org/1999/xlink" width="200" zoomAndPan="magnify" viewBox="0 0 150 149.999998" height="200" preserveAspectRatio="xMidYMid meet" version="1.0"><defs><g/><clipPath id="09e10cd8ba"><path d="M 21 20 L 129 20 L 129 126 L 21 126 Z M 21 20 " clip-rule="nonzero"/></clipPath><clipPath id="3bd0e7c2f6"><path d="M 150.074219 92.070312 L 57.261719 150.171875 L -0.441406 57.996094 L 92.371094 -0.105469 Z M 150.074219 92.070312 " clip-rule="nonzero"/></clipPath><clipPath id="7ec5dd3da9"><path d="M 150.074219 92.070312 L 57.261719 150.171875 L -0.441406 57.996094 L 92.371094 -0.105469 Z M 150.074219 92.070312 " clip-rule="nonzero"/></clipPath><clipPath id="9ad51f644b"><path d="M 35 114 L 84 114 L 84 132 L 35 132 Z M 35 114 " clip-rule="nonzero"/></clipPath><clipPath id="4934980b3f"><path d="M 150.074219 92.070312 L 57.261719 150.171875 L -0.441406 57.996094 L 92.371094 -0.105469 Z M 150.074219 92.070312 " clip-rule="nonzero"/></clipPath><clipPath id="167da771c5"><path d="M 150.074219 92.070312 L 57.261719 150.171875 L -0.441406 57.996094 L 92.371094 -0.105469 Z M 150.074219 92.070312 " clip-rule="nonzero"/></clipPath><clipPath id="6e43cbd6be"><path d="M 17 81 L 23 81 L 23 94 L 17 94 Z M 17 81 " clip-rule="nonzero"/></clipPath><clipPath id="94841ea01b"><path d="M 150.074219 92.070312 L 57.261719 150.171875 L -0.441406 57.996094 L 92.371094 -0.105469 Z M 150.074219 92.070312 " clip-rule="nonzero"/></clipPath><clipPath id="03804b6c9e"><path d="M 150.074219 92.070312 L 57.261719 150.171875 L -0.441406 57.996094 L 92.371094 -0.105469 Z M 150.074219 92.070312 " clip-rule="nonzero"/></clipPath><clipPath id="88890fd5e4"><path d="M 19 66 L 21 66 L 21 79 L 19 79 Z M 19 66 " clip-rule="nonzero"/></clipPath><clipPath id="3e95d17d76"><path d="M 150.074219 92.070312 L 57.261719 150.171875 L -0.441406 57.996094 L 92.371094 -0.105469 Z M 150.074219 92.070312 " clip-rule="nonzero"/></clipPath><clipPath id="6375a830b9"><path d="M 150.074219 92.070312 L 57.261719 150.171875 L -0.441406 57.996094 L 92.371094 -0.105469 Z M 150.074219 92.070312 " clip-rule="nonzero"/></clipPath><clipPath id="b8ef5d6e1d"><path d="M 20 54 L 23 54 L 23 63 L 20 63 Z M 20 54 " clip-rule="nonzero"/></clipPath><clipPath id="2f1ffb25e7"><path d="M 150.074219 92.070312 L 57.261719 150.171875 L -0.441406 57.996094 L 92.371094 -0.105469 Z M 150.074219 92.070312 " clip-rule="nonzero"/></clipPath><clipPath id="5ac29ccb29"><path d="M 150.074219 92.070312 L 57.261719 150.171875 L -0.441406 57.996094 L 92.371094 -0.105469 Z M 150.074219 92.070312 " clip-rule="nonzero"/></clipPath><clipPath id="0d44f0cbd8"><path d="M 21 86 L 24 86 L 24 93 L 21 93 Z M 21 86 " clip-rule="nonzero"/></clipPath><clipPath id="092fd813d5"><path d="M 150.074219 92.070312 L 57.261719 150.171875 L -0.441406 57.996094 L 92.371094 -0.105469 Z M 150.074219 92.070312 " clip-rule="nonzero"/></clipPath><clipPath id="59208812f8"><path d="M 150.074219 92.070312 L 57.261719 150.171875 L -0.441406 57.996094 L 92.371094 -0.105469 Z M 150.074219 92.070312 " clip-rule="nonzero"/></clipPath><clipPath id="c6f42dd7b0"><path d="M 24 94 L 28 94 L 28 102 L 24 102 Z M 24 94 " clip-rule="nonzero"/></clipPath><clipPath id="5d2f61d967"><path d="M 150.074219 92.070312 L 57.261719 150.171875 L -0.441406 57.996094 L 92.371094 -0.105469 Z M 150.074219 92.070312 " clip-rule="nonzero"/></clipPath><clipPath id="f5caa7ec62"><path d="M 150.074219 92.070312 L 57.261719 150.171875 L -0.441406 57.996094 L 92.371094 -0.105469 Z M 150.074219 92.070312 " clip-rule="nonzero"/></clipPath><clipPath id="3013874e9c"><path d="M 20 65 L 22 65 L 22 72 L 20 72 Z M 20 65 " clip-rule="nonzero"/></clipPath><clipPath id="29e0d50376"><path d="M 150.074219 92.070312 L 57.261719 150.171875 L -0.441406 57.996094 L 92.371094 -0.105469 Z M 150.074219 92.070312 " clip-rule="nonzero"/></clipPath><clipPath id="a5f60ca4a0"><path d="M 150.074219 92.070312 L 57.261719 150.171875 L -0.441406 57.996094 L 92.371094 -0.105469 Z M 150.074219 92.070312 " clip-rule="nonzero"/></clipPath><clipPath id="851804916a"><path d="M 131 86 L 133 86 L 133 93 L 131 93 Z M 131 86 " clip-rule="nonzero"/></clipPath><clipPath id="d07fbb2ab6"><path d="M 150.074219 92.070312 L 57.261719 150.171875 L -0.441406 57.996094 L 92.371094 -0.105469 Z M 150.074219 92.070312 " clip-rule="nonzero"/></clipPath><clipPath id="90027cd9bd"><path d="M 150.074219 92.070312 L 57.261719 150.171875 L -0.441406 57.996094 L 92.371094 -0.105469 Z M 150.074219 92.070312 " clip-rule="nonzero"/></clipPath><clipPath id="ba2c737667"><path d="M 41 116 L 44 116 L 44 118 L 41 118 Z M 41 116 " clip-rule="nonzero"/></clipPath><clipPath id="3a2fe3d97c"><path d="M 150.074219 92.070312 L 57.261719 150.171875 L -0.441406 57.996094 L 92.371094 -0.105469 Z M 150.074219 92.070312 " clip-rule="nonzero"/></clipPath><clipPath id="565af459d9"><path d="M 150.074219 92.070312 L 57.261719 150.171875 L -0.441406 57.996094 L 92.371094 -0.105469 Z M 150.074219 92.070312 " clip-rule="nonzero"/></clipPath><clipPath id="f84ca5aacf"><path d="M 16 70 L 18 70 L 18 72 L 16 72 Z M 16 70 " clip-rule="nonzero"/></clipPath><clipPath id="7362683cc6"><path d="M 150.074219 92.070312 L 57.261719 150.171875 L -0.441406 57.996094 L 92.371094 -0.105469 Z M 150.074219 92.070312 " clip-rule="nonzero"/></clipPath><clipPath id="e1a7192486"><path d="M 150.074219 92.070312 L 57.261719 150.171875 L -0.441406 57.996094 L 92.371094 -0.105469 Z M 150.074219 92.070312 " clip-rule="nonzero"/></clipPath><clipPath id="62a9eb1b51"><path d="M 35 110 L 38 110 L 38 112 L 35 112 Z M 35 110 " clip-rule="nonzero"/></clipPath><clipPath id="321a0df0fe"><path d="M 150.074219 92.070312 L 57.261719 150.171875 L -0.441406 57.996094 L 92.371094 -0.105469 Z M 150.074219 92.070312 " clip-rule="nonzero"/></clipPath><clipPath id="43938307ea"><path d="M 150.074219 92.070312 L 57.261719 150.171875 L -0.441406 57.996094 L 92.371094 -0.105469 Z M 150.074219 92.070312 " clip-rule="nonzero"/></clipPath><clipPath id="18fd5929c4"><path d="M 26 94 L 27 94 L 27 96 L 26 96 Z M 26 94 " clip-rule="nonzero"/></clipPath><clipPath id="ce1cdd25c9"><path d="M 150.074219 92.070312 L 57.261719 150.171875 L -0.441406 57.996094 L 92.371094 -0.105469 Z M 150.074219 92.070312 " clip-rule="nonzero"/></clipPath><clipPath id="7d62b75b95"><path d="M 150.074219 92.070312 L 57.261719 150.171875 L -0.441406 57.996094 L 92.371094 -0.105469 Z M 150.074219 92.070312 " clip-rule="nonzero"/></clipPath><clipPath id="7fee918ee6"><path d="M 98 123 L 101 123 L 101 124 L 98 124 Z M 98 123 " clip-rule="nonzero"/></clipPath><clipPath id="a612216208"><path d="M 150.074219 92.070312 L 57.261719 150.171875 L -0.441406 57.996094 L 92.371094 -0.105469 Z M 150.074219 92.070312 " clip-rule="nonzero"/></clipPath><clipPath id="3b81bc24f9"><path d="M 150.074219 92.070312 L 57.261719 150.171875 L -0.441406 57.996094 L 92.371094 -0.105469 Z M 150.074219 92.070312 " clip-rule="nonzero"/></clipPath><clipPath id="290e383cd3"><path d="M 134 72 L 135 72 L 135 75 L 134 75 Z M 134 72 " clip-rule="nonzero"/></clipPath><clipPath id="40df167458"><path d="M 150.074219 92.070312 L 57.261719 150.171875 L -0.441406 57.996094 L 92.371094 -0.105469 Z M 150.074219 92.070312 " clip-rule="nonzero"/></clipPath><clipPath id="889b59167e"><path d="M 150.074219 92.070312 L 57.261719 150.171875 L -0.441406 57.996094 L 92.371094 -0.105469 Z M 150.074219 92.070312 " clip-rule="nonzero"/></clipPath><clipPath id="0766a58bad"><path d="M 18 73 L 19 73 L 19 75 L 18 75 Z M 18 73 " clip-rule="nonzero"/></clipPath><clipPath id="765c368a7c"><path d="M 150.074219 92.070312 L 57.261719 150.171875 L -0.441406 57.996094 L 92.371094 -0.105469 Z M 150.074219 92.070312 " clip-rule="nonzero"/></clipPath><clipPath id="07238014f1"><path d="M 150.074219 92.070312 L 57.261719 150.171875 L -0.441406 57.996094 L 92.371094 -0.105469 Z M 150.074219 92.070312 " clip-rule="nonzero"/></clipPath><clipPath id="30cc650212"><path d="M 31 99 L 32 99 L 32 101 L 31 101 Z M 31 99 " clip-rule="nonzero"/></clipPath><clipPath id="38c46fe1c3"><path d="M 150.074219 92.070312 L 57.261719 150.171875 L -0.441406 57.996094 L 92.371094 -0.105469 Z M 150.074219 92.070312 " clip-rule="nonzero"/></clipPath><clipPath id="e83854874e"><path d="M 150.074219 92.070312 L 57.261719 150.171875 L -0.441406 57.996094 L 92.371094 -0.105469 Z M 150.074219 92.070312 " clip-rule="nonzero"/></clipPath><clipPath id="1f5ccabd1d"><path d="M 42 119 L 44 119 L 44 120 L 42 120 Z M 42 119 " clip-rule="nonzero"/></clipPath><clipPath id="777a305043"><path d="M 150.074219 92.070312 L 57.261719 150.171875 L -0.441406 57.996094 L 92.371094 -0.105469 Z M 150.074219 92.070312 " clip-rule="nonzero"/></clipPath><clipPath id="4c4914a0ec"><path d="M 150.074219 92.070312 L 57.261719 150.171875 L -0.441406 57.996094 L 92.371094 -0.105469 Z M 150.074219 92.070312 " clip-rule="nonzero"/></clipPath><clipPath id="43efa91b67"><path d="M 36 105 L 38 105 L 38 106 L 36 106 Z M 36 105 " clip-rule="nonzero"/></clipPath><clipPath id="15945f1b62"><path d="M 150.074219 92.070312 L 57.261719 150.171875 L -0.441406 57.996094 L 92.371094 -0.105469 Z M 150.074219 92.070312 " clip-rule="nonzero"/></clipPath><clipPath id="d5cc4f292a"><path d="M 150.074219 92.070312 L 57.261719 150.171875 L -0.441406 57.996094 L 92.371094 -0.105469 Z M 150.074219 92.070312 " clip-rule="nonzero"/></clipPath><clipPath id="19351af7dc"><path d="M 21 69 L 22 69 L 22 71 L 21 71 Z M 21 69 " clip-rule="nonzero"/></clipPath><clipPath id="1617709c56"><path d="M 150.074219 92.070312 L 57.261719 150.171875 L -0.441406 57.996094 L 92.371094 -0.105469 Z M 150.074219 92.070312 " clip-rule="nonzero"/></clipPath><clipPath id="ea4ec44eb9"><path d="M 150.074219 92.070312 L 57.261719 150.171875 L -0.441406 57.996094 L 92.371094 -0.105469 Z M 150.074219 92.070312 " clip-rule="nonzero"/></clipPath><clipPath id="317b1c6bd9"><path d="M 51 124 L 53 124 L 53 125 L 51 125 Z M 51 124 " clip-rule="nonzero"/></clipPath><clipPath id="7d16e7b7a0"><path d="M 150.074219 92.070312 L 57.261719 150.171875 L -0.441406 57.996094 L 92.371094 -0.105469 Z M 150.074219 92.070312 " clip-rule="nonzero"/></clipPath><clipPath id="0f3ee1bc09"><path d="M 150.074219 92.070312 L 57.261719 150.171875 L -0.441406 57.996094 L 92.371094 -0.105469 Z M 150.074219 92.070312 " clip-rule="nonzero"/></clipPath><clipPath id="9cfbb2240c"><path d="M 73 21 L 75 21 L 75 22 L 73 22 Z M 73 21 " clip-rule="nonzero"/></clipPath><clipPath id="7c9d7be25a"><path d="M 150.074219 92.070312 L 57.261719 150.171875 L -0.441406 57.996094 L 92.371094 -0.105469 Z M 150.074219 92.070312 " clip-rule="nonzero"/></clipPath><clipPath id="42e58cb048"><path d="M 150.074219 92.070312 L 57.261719 150.171875 L -0.441406 57.996094 L 92.371094 -0.105469 Z M 150.074219 92.070312 " clip-rule="nonzero"/></clipPath><clipPath id="73401a248f"><path d="M 35 100 L 39.539062 100 L 39.539062 106 L 35 106 Z M 35 100 " clip-rule="nonzero"/></clipPath><clipPath id="362d0173cf"><path d="M 31.289062 103 L 37 103 L 37 109.472656 L 31.289062 109.472656 Z M 31.289062 103 " clip-rule="nonzero"/></clipPath><clipPath id="21ec67122f"><path d="M 31.289062 98.222656 L 35 98.222656 L 35 102 L 31.289062 102 Z M 31.289062 98.222656 " clip-rule="nonzero"/></clipPath></defs><rect x="-15" width="180" fill="#ffffff" y="-15" height="179.999997" fill-opacity="1"/><rect x="-15" width="180" fill="#ffffff" y="-15" height="179.999997" fill-opacity="1"/><rect x="-15" width="180" fill="#ffffff" y="-15" height="179.999997" fill-opacity="1"/><g clip-path="url(#09e10cd8ba)"><g clip-path="url(#3bd0e7c2f6)"><g clip-path="url(#7ec5dd3da9)"><path fill="#858cc6" d="M 110.707031 34.882812 L 110.722656 34.832031 L 110.371094 34.53125 Z M 34.15625 106.542969 C 33.914062 106.136719 34.007812 106.054688 34.441406 106.480469 C 35.046875 107.078125 35.675781 107.679688 36.339844 108.410156 C 37.679688 109.730469 39.167969 111.015625 40.582031 112.347656 C 44.777344 115.800781 49.460938 118.628906 54.464844 120.792969 L 58.117188 122.203125 L 61.898438 123.238281 C 62.925781 123.570312 64.003906 123.699219 65.035156 123.851562 C 66.132812 124.015625 67.121094 124.144531 67.890625 124.210938 C 68.664062 124.234375 69.222656 124.160156 69.441406 124.054688 C 69.75 123.894531 70.765625 123.875 72.355469 123.96875 C 76.921875 123.953125 81.488281 123.660156 86.101562 122.507812 L 87.941406 122.097656 L 89.722656 121.492188 C 90.238281 121.3125 90.71875 121.050781 90.441406 121.09375 C 90.210938 121.128906 89.90625 121.183594 89.5625 121.277344 C 89.007812 121.4375 88.386719 121.617188 87.789062 121.789062 C 83.238281 122.84375 78.640625 123.457031 74.042969 123.257812 C 71.964844 123.207031 69.878906 122.933594 67.800781 122.699219 C 66.140625 122.359375 64.5 122.117188 63.054688 121.675781 C 61.992188 121.300781 60.75 120.960938 59.539062 120.613281 C 57.746094 120.0625 56.042969 119.261719 54.292969 118.609375 C 52.648438 117.722656 50.9375 116.957031 49.347656 115.984375 C 49.238281 115.914062 49.101562 115.792969 49.09375 115.765625 C 49.085938 115.738281 49.210938 115.773438 49.296875 115.824219 C 50.699219 116.679688 52.257812 117.273438 53.699219 118.054688 C 56.574219 119.347656 59.503906 120.359375 62.523438 121.066406 C 63.117188 121.230469 63.726562 121.402344 64.34375 121.488281 C 69.613281 122.746094 75.101562 122.90625 80.472656 122.382812 C 81.710938 122.242188 82.980469 122.179688 84.160156 121.90625 C 88.636719 121.304688 92.984375 119.671875 97.203125 117.785156 C 101.457031 115.503906 105.605469 112.929688 109.121094 109.605469 C 115.09375 104.292969 119.492188 97.371094 122.332031 89.953125 C 124.230469 84.859375 125.351562 79.464844 125.652344 74.019531 C 125.886719 68.386719 125.132812 62.6875 123.507812 57.273438 C 123.1875 56.277344 122.914062 55.265625 122.574219 54.277344 L 121.371094 51.386719 C 118.960938 46.027344 115.660156 41.039062 111.609375 36.757812 C 110.84375 36.039062 110.070312 35.3125 109.308594 34.597656 C 105.679688 31.414062 101.742188 28.578125 97.363281 26.476562 C 96.09375 25.75 94.722656 25.214844 93.332031 24.699219 L 91.257812 23.898438 L 89.121094 23.289062 C 87.699219 22.894531 86.289062 22.441406 84.824219 22.242188 L 83.851562 22.015625 C 84.15625 22.042969 84.4375 22.070312 84.769531 22.105469 C 85.328125 22.175781 85.914062 22.25 86.492188 22.324219 L 86.34375 22.308594 C 87.808594 22.632812 89.308594 23.03125 90.828125 23.417969 C 92.328125 23.882812 93.796875 24.496094 95.28125 25.015625 C 95.808594 25.183594 96.269531 25.371094 96.71875 25.554688 C 96.796875 25.585938 96.78125 25.535156 96.707031 25.480469 C 96.625 25.421875 96.441406 25.304688 96.28125 25.222656 C 94.726562 24.53125 93.113281 23.960938 91.542969 23.3125 C 89.691406 22.757812 87.867188 22.214844 85.996094 21.824219 C 81.429688 20.941406 76.773438 20.667969 72.140625 20.929688 C 69.417969 21.226562 66.6875 21.46875 64.203125 22.234375 C 63.128906 22.519531 61.777344 22.746094 60.597656 23.195312 L 57.574219 24.171875 C 56.566406 24.496094 55.628906 25 54.648438 25.402344 C 52.667969 26.167969 50.84375 27.25 48.996094 28.285156 C 44.667969 30.914062 40.523438 33.96875 37.152344 37.757812 C 35.992188 38.84375 35.074219 40.128906 34.078125 41.355469 C 33.039062 42.550781 32.210938 43.90625 31.378906 45.277344 C 30.957031 46 30.429688 46.703125 30.050781 47.441406 C 27.78125 51.464844 26.066406 55.863281 24.886719 60.367188 C 23.582031 65.738281 23.085938 71.210938 23.375 76.636719 C 23.554688 78.832031 23.679688 80.976562 24.125 83.050781 C 24.398438 85.160156 24.976562 87.171875 25.550781 89.214844 C 25.953125 91.019531 26.640625 92.425781 26.839844 93.507812 C 27.101562 94.601562 27.0625 94.988281 26.367188 93.867188 C 26.097656 93.441406 25.816406 92.980469 25.621094 92.742188 C 25.230469 92.253906 24.839844 91.667969 24.488281 90.84375 C 24.183594 90.007812 23.867188 88.949219 23.492188 87.570312 C 23.117188 86.378906 22.882812 85.144531 22.679688 83.882812 C 22.484375 82.621094 22.132812 81.371094 22.027344 80.050781 C 21.953125 79.183594 21.882812 78.332031 21.808594 77.480469 C 21.679688 75.910156 21.757812 75.394531 21.992188 76.300781 C 22.117188 76.808594 22.265625 77.40625 22.382812 77.894531 C 22.488281 78.277344 22.601562 77.929688 22.570312 77.300781 C 22.472656 76.179688 22.492188 75.050781 22.539062 73.835938 C 22.355469 69.117188 23.136719 64.386719 24.21875 59.808594 C 24.394531 59.191406 24.578125 58.546875 24.75 57.941406 C 26.28125 52.289062 28.898438 47.0625 32.226562 42.332031 C 36.5 36.40625 42.019531 31.40625 48.316406 27.640625 L 51.699219 25.75 C 57.3125 22.996094 63.394531 21.253906 69.597656 20.625 C 71.835938 20.269531 74.113281 20.402344 76.371094 20.320312 C 77.5 20.347656 78.621094 20.488281 79.746094 20.558594 C 80.871094 20.628906 81.992188 20.707031 83.089844 20.9375 C 89.234375 21.816406 95.246094 23.894531 100.699219 26.824219 C 105.367188 29.417969 109.589844 32.726562 113.292969 36.25 C 114.605469 37.753906 116.226562 39.234375 117.417969 40.980469 C 117.917969 41.65625 118.464844 42.398438 118.925781 43.019531 C 120.96875 45.773438 122.773438 49.058594 124.199219 52.449219 C 124.894531 53.808594 125.261719 55.28125 125.78125 56.710938 C 126.320312 58.132812 126.6875 59.605469 126.988281 61.105469 C 128.070312 65.355469 128.265625 69.816406 128.167969 74.183594 C 127.789062 78.957031 126.980469 83.660156 125.433594 88.167969 C 124.75 90.210938 123.871094 92.199219 123.015625 94.191406 C 120.789062 99.023438 117.777344 103.097656 114.414062 106.90625 C 113.507812 107.796875 112.621094 108.671875 111.753906 109.523438 C 107.621094 113.21875 102.851562 116.542969 97.613281 119.105469 C 96.824219 119.445312 96.011719 119.796875 95.242188 120.128906 L 93.199219 121.054688 C 92.496094 121.316406 91.777344 121.53125 91.066406 121.769531 C 89.632812 122.21875 88.21875 122.777344 86.71875 123.019531 C 85.660156 123.242188 84.703125 123.5625 84.707031 123.671875 C 84.707031 123.789062 85.503906 123.730469 86.480469 123.566406 C 88.167969 123.355469 89.800781 122.75 91.46875 122.226562 C 92.261719 121.941406 93.117188 121.796875 93.875 121.445312 C 94.574219 121.164062 95 121.152344 94.480469 121.433594 C 93.890625 121.761719 93.234375 122.097656 92.511719 122.339844 C 92.171875 122.472656 91.691406 122.632812 91.296875 122.75 C 90.285156 123.058594 89.285156 123.367188 88.289062 123.671875 L 85.25 124.332031 C 83.25 124.878906 81.1875 125.011719 79.136719 125.308594 C 77.214844 125.550781 75.1875 125.429688 73.21875 125.496094 L 67.964844 125.039062 C 65.996094 124.648438 64.089844 124.375 62.289062 123.839844 C 61.117188 123.472656 59.910156 123.09375 58.679688 122.707031 C 57.453125 122.332031 56.273438 121.757812 55.046875 121.296875 C 53.597656 120.785156 52.238281 120.050781 50.898438 119.441406 C 48.863281 118.621094 47.160156 117.4375 45.4375 116.238281 C 43.996094 115.304688 42.835938 114.242188 41.417969 113.335938 C 40.359375 112.679688 39.417969 111.808594 38.429688 110.957031 C 37.46875 110.082031 36.382812 109.296875 35.539062 108.308594 C 35.074219 107.816406 34.414062 106.96875 34.15625 106.542969 " fill-opacity="1" fill-rule="nonzero"/></g></g></g><g clip-path="url(#9ad51f644b)"><g clip-path="url(#4934980b3f)"><g clip-path="url(#167da771c5)"><path fill="#858cc6" d="M 79.570312 131.035156 C 77.140625 131.222656 74.910156 131.042969 73.03125 130.949219 C 71.3125 130.683594 69.191406 130.492188 66.949219 130.289062 C 65.445312 130.046875 64.183594 129.792969 63.039062 129.484375 C 62.019531 129.246094 60.949219 128.847656 59.761719 128.441406 C 57.726562 127.761719 56.804688 127.34375 56.496094 127.011719 C 56.40625 126.914062 56.003906 126.691406 55.585938 126.480469 C 55.382812 126.378906 54.792969 126.164062 54.386719 126.011719 C 54.214844 125.949219 53.96875 125.878906 53.917969 125.878906 C 53.375 125.828125 52.183594 125.660156 50.058594 124.542969 C 48.125 123.554688 46.210938 122.679688 44.558594 121.457031 C 43.28125 120.542969 41.917969 119.78125 40.746094 118.71875 C 39.707031 117.863281 38.660156 117 37.597656 116.125 C 37.082031 115.691406 36.566406 115.144531 36.050781 114.691406 C 35.769531 114.429688 35.378906 114.109375 35.257812 114.042969 C 35.140625 113.972656 35.179688 114.105469 35.359375 114.296875 C 36.03125 114.996094 36.695312 115.800781 37.523438 116.511719 C 39.25 117.878906 40.90625 119.507812 42.777344 120.695312 C 44.6875 122.03125 46.601562 123.351562 48.683594 124.40625 C 50.6875 125.609375 52.839844 126.503906 55.007812 127.425781 C 56.222656 128.003906 57.617188 128.359375 58.945312 128.785156 C 59.945312 129.082031 60.9375 129.429688 61.953125 129.683594 L 65.035156 130.324219 C 66.410156 130.640625 67.800781 130.875 69.210938 130.980469 C 70.613281 131.109375 72.019531 131.332031 73.433594 131.371094 L 73.484375 131.351562 C 75.886719 131.316406 78.296875 131.492188 80.695312 131.164062 C 81.398438 131.085938 82.121094 131.007812 82.835938 130.929688 C 83.019531 130.910156 83.363281 130.847656 83.351562 130.839844 C 83.296875 130.804688 83.25 130.742188 82.992188 130.761719 C 81.894531 130.847656 80.742188 130.941406 79.570312 131.035156 " fill-opacity="1" fill-rule="nonzero"/></g></g></g><g clip-path="url(#6e43cbd6be)"><g clip-path="url(#94841ea01b)"><g clip-path="url(#03804b6c9e)"><path fill="#858cc6" d="M 22.011719 92.84375 C 21.351562 91.03125 20.945312 89.125 20.382812 87.242188 C 20.183594 86.652344 20.0625 85.902344 19.902344 85.234375 C 19.664062 84.140625 19.351562 83.183594 19.226562 83.160156 C 19.101562 83.132812 19.148438 83.960938 19.335938 84.972656 C 19.425781 85.410156 19.519531 85.875 19.609375 86.332031 C 19.667969 86.558594 19.699219 86.792969 19.777344 87.011719 C 20.300781 88.707031 20.375 89.3125 19.988281 88.574219 C 19.683594 87.949219 19.234375 87.15625 18.953125 86.007812 C 18.46875 84.296875 18.023438 82.910156 17.632812 81.933594 C 17.324219 81.171875 17.171875 80.742188 17.070312 81.40625 C 17.023438 81.636719 17.128906 82.292969 17.222656 82.875 C 17.328125 83.449219 17.527344 84.269531 17.671875 84.792969 C 17.953125 85.816406 18.15625 86.238281 18.308594 86.398438 C 18.503906 86.585938 18.632812 86.851562 19.109375 87.96875 C 20.375 91.019531 20.972656 92.058594 22.101562 93.65625 C 22.328125 94 22.269531 93.511719 22.011719 92.84375 " fill-opacity="1" fill-rule="nonzero"/></g></g></g><g clip-path="url(#88890fd5e4)"><g clip-path="url(#3e95d17d76)"><g clip-path="url(#6375a830b9)"><path fill="#858cc6" d="M 20.613281 75.640625 C 20.511719 74.195312 20.355469 73.542969 20.222656 72.527344 C 20.144531 71.699219 20.011719 70.664062 20.199219 69.605469 C 20.261719 69.085938 20.3125 68.675781 20.363281 68.25 C 20.378906 68.046875 20.402344 67.769531 20.417969 67.609375 C 20.425781 67.246094 20.445312 66.71875 20.417969 66.640625 C 20.199219 65.953125 19.683594 67.628906 19.394531 70.03125 C 19.304688 70.503906 19.40625 71.398438 19.433594 71.789062 C 19.480469 72.21875 19.5625 72.3125 19.628906 72.515625 C 19.75 72.882812 19.839844 73.589844 19.894531 74.742188 C 19.894531 75.800781 20.113281 76.867188 20.253906 77.875 C 20.3125 78.234375 20.394531 78.574219 20.449219 78.699219 C 20.664062 79.199219 20.800781 79.042969 20.835938 78.070312 C 20.855469 77.632812 20.714844 76.339844 20.613281 75.640625 " fill-opacity="1" fill-rule="nonzero"/></g></g></g><g clip-path="url(#b8ef5d6e1d)"><g clip-path="url(#2f1ffb25e7)"><g clip-path="url(#5ac29ccb29)"><path fill="#858cc6" d="M 21.582031 59.828125 C 22.253906 57.09375 22.457031 55.523438 22.4375 54.664062 C 22.429688 54.582031 22.207031 55.0625 22.164062 55.234375 C 21.765625 56.75 21.371094 58.246094 20.96875 59.761719 C 20.65625 61.445312 20.699219 61.984375 20.765625 62.34375 C 20.804688 62.402344 20.839844 62.476562 20.878906 62.5 C 21.035156 62.585938 21.332031 61.269531 21.582031 59.828125 " fill-opacity="1" fill-rule="nonzero"/></g></g></g><g clip-path="url(#0d44f0cbd8)"><g clip-path="url(#092fd813d5)"><g clip-path="url(#59208812f8)"><path fill="#858cc6" d="M 22.894531 92.472656 C 23.007812 92.566406 23.148438 92.710938 23.148438 92.558594 C 23.113281 92.015625 22.898438 90.773438 22.519531 89.046875 C 22.453125 88.757812 22.285156 88.179688 22.171875 87.867188 C 21.964844 87.34375 21.792969 86.917969 21.648438 86.546875 C 21.570312 86.511719 21.476562 86.375 21.464844 86.476562 C 21.402344 87.097656 21.601562 88.398438 22.082031 90.417969 C 22.210938 91.078125 22.714844 92.359375 22.894531 92.472656 " fill-opacity="1" fill-rule="nonzero"/></g></g></g><g clip-path="url(#c6f42dd7b0)"><g clip-path="url(#5d2f61d967)"><g clip-path="url(#f5caa7ec62)"><path fill="#858cc6" d="M 25.589844 98.03125 C 25.996094 98.746094 26.667969 99.925781 27.335938 101.105469 C 27.621094 101.601562 27.917969 101.910156 27.824219 101.636719 C 27.421875 100.46875 26.507812 98.648438 25.503906 96.703125 C 25.023438 95.558594 24.320312 94.265625 24.292969 94.558594 C 24.316406 94.875 24.546875 96.230469 25.589844 98.03125 " fill-opacity="1" fill-rule="nonzero"/></g></g></g><g clip-path="url(#3013874e9c)"><g clip-path="url(#29e0d50376)"><g clip-path="url(#a5f60ca4a0)"><path fill="#858cc6" d="M 20.765625 71.730469 C 20.792969 71.902344 20.859375 71.828125 20.878906 71.613281 C 20.925781 71.167969 20.894531 70.550781 21.019531 69.894531 C 21.09375 68.914062 21.175781 67.851562 21.257812 66.820312 C 21.277344 66.492188 21.265625 66.089844 21.238281 65.980469 C 21.210938 65.871094 21.148438 65.960938 21.097656 66.183594 C 20.855469 67.582031 20.453125 70.402344 20.765625 71.730469 " fill-opacity="1" fill-rule="nonzero"/></g></g></g><g clip-path="url(#851804916a)"><g clip-path="url(#d07fbb2ab6)"><g clip-path="url(#90027cd9bd)"><path fill="#858cc6" d="M 132.320312 88.171875 C 131.894531 89.515625 131.566406 90.90625 131.078125 92.191406 C 131.027344 92.351562 131.011719 92.476562 131.03125 92.472656 C 131.054688 92.46875 131.140625 92.328125 131.210938 92.164062 C 131.988281 90.441406 132.324219 88.550781 132.84375 86.742188 C 132.886719 86.578125 132.894531 86.453125 132.917969 86.308594 C 132.855469 86.484375 132.800781 86.640625 132.730469 86.839844 C 132.597656 87.269531 132.457031 87.726562 132.320312 88.171875 " fill-opacity="1" fill-rule="nonzero"/></g></g></g><g clip-path="url(#ba2c737667)"><g clip-path="url(#3a2fe3d97c)"><g clip-path="url(#565af459d9)"><path fill="#858cc6" d="M 43.960938 117.65625 C 43.933594 117.617188 43.746094 117.484375 43.550781 117.332031 C 43.085938 117.042969 42.597656 116.621094 42.089844 116.253906 C 41.960938 116.15625 41.785156 116.050781 41.738281 116.035156 C 41.609375 116 41.796875 116.191406 42.222656 116.519531 C 42.734375 116.898438 43.21875 117.308594 43.765625 117.597656 C 43.863281 117.65625 43.984375 117.6875 43.960938 117.65625 " fill-opacity="1" fill-rule="nonzero"/></g></g></g><g clip-path="url(#f84ca5aacf)"><g clip-path="url(#7362683cc6)"><g clip-path="url(#e1a7192486)"><path fill="#858cc6" d="M 16.988281 70.804688 C 16.941406 70.597656 16.898438 70.714844 16.902344 71.1875 C 16.902344 71.4375 16.945312 71.757812 16.972656 71.976562 C 16.980469 72.039062 17.011719 71.910156 17.019531 71.78125 C 17.046875 71.402344 17.035156 71.054688 16.988281 70.804688 " fill-opacity="1" fill-rule="nonzero"/></g></g></g><g clip-path="url(#62a9eb1b51)"><g clip-path="url(#321a0df0fe)"><g clip-path="url(#43938307ea)"><path fill="#858cc6" d="M 35.761719 110.027344 C 35.847656 110.128906 35.898438 110.210938 36.019531 110.335938 C 36.28125 110.609375 36.597656 110.941406 36.855469 111.175781 C 37.207031 111.488281 37.308594 111.515625 37.109375 111.269531 C 36.8125 110.902344 36.273438 110.371094 35.914062 110.089844 C 35.820312 110.011719 35.8125 110.042969 35.761719 110.027344 " fill-opacity="1" fill-rule="nonzero"/></g></g></g><g clip-path="url(#18fd5929c4)"><g clip-path="url(#ce1cdd25c9)"><g clip-path="url(#7d62b75b95)"><path fill="#858cc6" d="M 26.667969 95.851562 C 26.789062 96.007812 26.730469 95.785156 26.515625 95.28125 C 26.453125 95.136719 26.367188 95.007812 26.292969 94.871094 C 26.179688 94.746094 26.230469 94.941406 26.445312 95.449219 C 26.511719 95.59375 26.625 95.800781 26.667969 95.851562 " fill-opacity="1" fill-rule="nonzero"/></g></g></g><g clip-path="url(#7fee918ee6)"><g clip-path="url(#a612216208)"><g clip-path="url(#3b81bc24f9)"><path fill="#858cc6" d="M 98.882812 123.820312 C 98.738281 123.941406 98.96875 123.878906 99.46875 123.667969 C 99.640625 123.597656 99.949219 123.449219 99.980469 123.421875 C 100.117188 123.308594 99.886719 123.371094 99.398438 123.570312 C 99.222656 123.65625 98.921875 123.792969 98.882812 123.820312 " fill-opacity="1" fill-rule="nonzero"/></g></g></g><g clip-path="url(#290e383cd3)"><g clip-path="url(#40df167458)"><g clip-path="url(#889b59167e)"><path fill="#858cc6" d="M 134.765625 74.257812 L 134.820312 74.105469 C 134.808594 73.734375 134.792969 73.359375 134.78125 73 C 134.777344 72.976562 134.746094 73.09375 134.726562 73.144531 L 134.765625 74.257812 " fill-opacity="1" fill-rule="nonzero"/></g></g></g><g clip-path="url(#0766a58bad)"><g clip-path="url(#765c368a7c)"><g clip-path="url(#07238014f1)"><path fill="#858cc6" d="M 18.339844 74.15625 C 18.355469 74.15625 18.382812 74.023438 18.386719 73.875 C 18.402344 73.371094 18.378906 73.070312 18.324219 73.023438 C 18.304688 73.117188 18.277344 73.167969 18.273438 73.3125 C 18.257812 73.820312 18.285156 74.152344 18.339844 74.15625 " fill-opacity="1" fill-rule="nonzero"/></g></g></g><g clip-path="url(#30cc650212)"><g clip-path="url(#38c46fe1c3)"><g clip-path="url(#e83854874e)"><path fill="#858cc6" d="M 31.402344 99.9375 C 31.46875 100.023438 31.578125 100.136719 31.574219 100.117188 C 31.574219 100.09375 31.464844 99.921875 31.402344 99.816406 L 31.214844 99.621094 C 31.277344 99.726562 31.347656 99.84375 31.402344 99.9375 " fill-opacity="1" fill-rule="nonzero"/></g></g></g><g clip-path="url(#1f5ccabd1d)"><g clip-path="url(#777a305043)"><g clip-path="url(#4c4914a0ec)"><path fill="#858cc6" d="M 43.148438 119.328125 C 43.046875 119.265625 42.957031 119.238281 42.863281 119.195312 C 42.980469 119.28125 43.109375 119.375 43.210938 119.449219 C 43.316406 119.511719 43.40625 119.539062 43.5 119.582031 C 43.382812 119.496094 43.253906 119.402344 43.148438 119.328125 " fill-opacity="1" fill-rule="nonzero"/></g></g></g><g clip-path="url(#43efa91b67)"><g clip-path="url(#15945f1b62)"><g clip-path="url(#d5cc4f292a)"><path fill="#858cc6" d="M 37.003906 105.675781 C 36.910156 105.554688 36.796875 105.414062 36.726562 105.320312 C 36.628906 105.210938 36.488281 105.085938 36.46875 105.085938 C 36.402344 105.097656 36.5625 105.304688 36.863281 105.597656 C 36.945312 105.675781 36.957031 105.652344 37.003906 105.675781 " fill-opacity="1" fill-rule="nonzero"/></g></g></g><g clip-path="url(#19351af7dc)"><g clip-path="url(#1617709c56)"><g clip-path="url(#ea4ec44eb9)"><path fill="#858cc6" d="M 21.863281 69.910156 L 21.792969 70.238281 L 21.828125 70.414062 Z M 21.863281 69.910156 " fill-opacity="1" fill-rule="nonzero"/></g></g></g><g clip-path="url(#317b1c6bd9)"><g clip-path="url(#7d16e7b7a0)"><g clip-path="url(#0f3ee1bc09)"><path fill="#858cc6" d="M 51.808594 124.457031 L 52.273438 124.644531 L 52.121094 124.542969 Z M 51.808594 124.457031 " fill-opacity="1" fill-rule="nonzero"/></g></g></g><g clip-path="url(#9cfbb2240c)"><g clip-path="url(#7c9d7be25a)"><g clip-path="url(#42e58cb048)"><path fill="#858cc6" d="M 74.136719 21.21875 L 74.410156 21.1875 L 73.964844 21.1875 Z M 74.136719 21.21875 " fill-opacity="1" fill-rule="nonzero"/></g></g></g><g clip-path="url(#73401a248f)"><path fill="#ffffff" d="M 37.1875 101.695312 L 37.414062 100.234375 C 37.433594 100.136719 37.570312 100.136719 37.585938 100.234375 L 37.8125 101.695312 C 37.875 102.074219 38.164062 102.375 38.542969 102.460938 L 39.421875 102.648438 C 39.511719 102.667969 39.511719 102.792969 39.421875 102.8125 L 38.542969 103.003906 C 38.164062 103.085938 37.875 103.386719 37.8125 103.765625 L 37.585938 105.226562 C 37.570312 105.324219 37.433594 105.324219 37.414062 105.226562 L 37.1875 103.765625 C 37.128906 103.386719 36.839844 103.085938 36.457031 103.003906 L 35.578125 102.8125 C 35.488281 102.792969 35.488281 102.667969 35.578125 102.648438 L 36.457031 102.460938 C 36.839844 102.375 37.128906 102.070312 37.1875 101.695312 Z M 37.1875 101.695312 " fill-opacity="1" fill-rule="nonzero"/><path fill="#ffffff" d="M 37.5 105.332031 C 37.449219 105.332031 37.394531 105.304688 37.386719 105.238281 L 37.15625 103.773438 C 37.097656 103.40625 36.820312 103.117188 36.453125 103.035156 L 35.574219 102.847656 C 35.519531 102.835938 35.480469 102.789062 35.480469 102.734375 C 35.480469 102.679688 35.519531 102.632812 35.574219 102.621094 L 36.453125 102.433594 C 36.816406 102.355469 37.101562 102.058594 37.15625 101.695312 L 37.386719 100.234375 C 37.398438 100.167969 37.453125 100.132812 37.5 100.132812 C 37.546875 100.132812 37.605469 100.164062 37.613281 100.230469 L 37.84375 101.691406 C 37.902344 102.058594 38.179688 102.347656 38.546875 102.429688 L 39.425781 102.617188 C 39.480469 102.628906 39.519531 102.675781 39.519531 102.730469 C 39.519531 102.785156 39.480469 102.832031 39.425781 102.84375 L 38.546875 103.03125 C 38.179688 103.109375 37.898438 103.402344 37.84375 103.769531 L 37.613281 105.230469 C 37.605469 105.300781 37.550781 105.332031 37.5 105.332031 Z M 37.5 100.191406 C 37.480469 100.191406 37.453125 100.203125 37.445312 100.238281 L 37.214844 101.699219 C 37.15625 102.085938 36.851562 102.40625 36.460938 102.488281 L 35.582031 102.675781 C 35.554688 102.683594 35.539062 102.710938 35.539062 102.730469 C 35.539062 102.75 35.554688 102.777344 35.582031 102.785156 L 36.460938 102.972656 C 36.859375 103.0625 37.152344 103.371094 37.214844 103.761719 L 37.445312 105.222656 C 37.449219 105.257812 37.476562 105.269531 37.5 105.269531 C 37.527344 105.269531 37.546875 105.257812 37.554688 105.222656 L 37.785156 103.761719 C 37.84375 103.371094 38.140625 103.0625 38.539062 102.972656 L 39.417969 102.785156 C 39.449219 102.777344 39.460938 102.75 39.460938 102.730469 C 39.460938 102.710938 39.449219 102.683594 39.417969 102.675781 L 38.539062 102.488281 C 38.140625 102.402344 37.847656 102.09375 37.785156 101.699219 L 37.554688 100.238281 C 37.546875 100.203125 37.523438 100.191406 37.5 100.191406 Z M 37.5 100.191406 " fill-opacity="1" fill-rule="nonzero"/></g><g clip-path="url(#362d0173cf)"><path fill="#ffffff" d="M 33.386719 105.042969 L 33.664062 103.257812 C 33.683594 103.140625 33.851562 103.140625 33.875 103.257812 L 34.152344 105.042969 C 34.226562 105.507812 34.582031 105.875 35.042969 105.976562 L 36.117188 106.207031 C 36.226562 106.230469 36.226562 106.382812 36.117188 106.40625 L 35.042969 106.636719 C 34.582031 106.734375 34.226562 107.105469 34.152344 107.566406 L 33.875 109.355469 C 33.855469 109.472656 33.6875 109.472656 33.664062 109.355469 L 33.386719 107.570312 C 33.3125 107.105469 32.957031 106.738281 32.496094 106.640625 L 31.421875 106.410156 C 31.3125 106.382812 31.3125 106.230469 31.421875 106.210938 L 32.496094 105.980469 C 32.957031 105.878906 33.3125 105.507812 33.386719 105.042969 Z M 33.386719 105.042969 " fill-opacity="1" fill-rule="nonzero"/><path fill="#ffffff" d="M 33.773438 109.472656 C 33.703125 109.472656 33.648438 109.425781 33.636719 109.359375 L 33.355469 107.574219 C 33.285156 107.125 32.945312 106.769531 32.492188 106.667969 L 31.417969 106.4375 C 31.339844 106.421875 31.308594 106.359375 31.3125 106.304688 C 31.3125 106.242188 31.359375 106.191406 31.421875 106.179688 L 32.496094 105.949219 C 32.945312 105.855469 33.292969 105.488281 33.359375 105.039062 L 33.640625 103.253906 C 33.652344 103.171875 33.710938 103.140625 33.773438 103.140625 C 33.839844 103.140625 33.898438 103.1875 33.910156 103.253906 L 34.191406 105.039062 C 34.265625 105.492188 34.601562 105.847656 35.058594 105.945312 L 36.128906 106.175781 C 36.207031 106.191406 36.242188 106.253906 36.234375 106.308594 C 36.234375 106.371094 36.191406 106.421875 36.125 106.433594 L 35.050781 106.664062 C 34.601562 106.761719 34.253906 107.125 34.1875 107.570312 L 33.90625 109.359375 C 33.894531 109.4375 33.832031 109.472656 33.773438 109.472656 Z M 33.414062 105.046875 C 33.34375 105.519531 32.972656 105.910156 32.5 106.007812 L 31.425781 106.238281 C 31.382812 106.246094 31.371094 106.277344 31.367188 106.304688 C 31.367188 106.335938 31.378906 106.367188 31.425781 106.375 L 32.5 106.605469 C 32.984375 106.710938 33.339844 107.085938 33.414062 107.5625 L 33.695312 109.34375 C 33.703125 109.390625 33.742188 109.40625 33.773438 109.40625 C 33.800781 109.40625 33.835938 109.390625 33.839844 109.34375 L 34.121094 107.558594 C 34.191406 107.089844 34.5625 106.703125 35.035156 106.601562 L 36.109375 106.371094 C 36.152344 106.363281 36.164062 106.335938 36.167969 106.304688 C 36.167969 106.277344 36.15625 106.242188 36.109375 106.234375 L 35.035156 106.003906 C 34.550781 105.898438 34.195312 105.523438 34.121094 105.046875 L 33.839844 103.261719 C 33.832031 103.214844 33.792969 103.199219 33.761719 103.199219 C 33.734375 103.199219 33.699219 103.214844 33.695312 103.261719 Z M 33.414062 105.046875 " fill-opacity="1" fill-rule="nonzero"/></g><g clip-path="url(#21ec67122f)"><path fill="#ffffff" d="M 32.714844 99.292969 L 32.871094 98.304688 C 32.878906 98.242188 32.976562 98.242188 32.988281 98.304688 L 33.144531 99.292969 C 33.183594 99.546875 33.382812 99.753906 33.636719 99.808594 L 34.230469 99.9375 C 34.289062 99.949219 34.289062 100.039062 34.230469 100.050781 L 33.636719 100.179688 C 33.378906 100.230469 33.183594 100.433594 33.140625 100.6875 L 32.984375 101.679688 C 32.972656 101.742188 32.875 101.742188 32.867188 101.679688 L 32.714844 100.6875 C 32.675781 100.433594 32.476562 100.230469 32.222656 100.175781 L 31.628906 100.046875 C 31.570312 100.03125 31.570312 99.945312 31.628906 99.933594 L 32.222656 99.804688 C 32.476562 99.753906 32.675781 99.546875 32.714844 99.292969 Z M 32.714844 99.292969 " fill-opacity="1" fill-rule="nonzero"/><path fill="#ffffff" d="M 32.921875 101.757812 C 32.875 101.757812 32.839844 101.730469 32.835938 101.683594 L 32.679688 100.691406 C 32.648438 100.453125 32.457031 100.257812 32.214844 100.203125 L 31.621094 100.074219 C 31.578125 100.066406 31.554688 100.03125 31.554688 99.988281 C 31.554688 99.945312 31.582031 99.90625 31.621094 99.898438 L 32.214844 99.769531 C 32.457031 99.722656 32.648438 99.527344 32.679688 99.285156 L 32.839844 98.296875 C 32.84375 98.253906 32.878906 98.222656 32.925781 98.222656 C 32.972656 98.222656 33.011719 98.25 33.015625 98.296875 L 33.171875 99.289062 C 33.207031 99.527344 33.398438 99.722656 33.640625 99.777344 L 34.234375 99.90625 C 34.277344 99.917969 34.300781 99.949219 34.300781 99.996094 C 34.300781 100.039062 34.273438 100.074219 34.234375 100.082031 L 33.640625 100.210938 C 33.398438 100.257812 33.207031 100.453125 33.167969 100.695312 L 33.011719 101.6875 C 33.007812 101.722656 32.96875 101.757812 32.921875 101.757812 Z M 32.746094 99.296875 C 32.707031 99.566406 32.5 99.78125 32.226562 99.832031 L 31.632812 99.960938 C 31.617188 99.964844 31.613281 99.984375 31.613281 99.988281 C 31.613281 99.992188 31.613281 100.007812 31.632812 100.011719 L 32.226562 100.140625 C 32.496094 100.199219 32.703125 100.417969 32.746094 100.679688 L 32.898438 101.671875 C 32.902344 101.691406 32.917969 101.691406 32.921875 101.691406 C 32.925781 101.691406 32.945312 101.691406 32.949219 101.671875 L 33.105469 100.679688 C 33.152344 100.414062 33.359375 100.195312 33.628906 100.144531 L 34.222656 100.015625 C 34.238281 100.011719 34.242188 99.996094 34.242188 99.992188 C 34.242188 99.988281 34.242188 99.96875 34.222656 99.964844 L 33.628906 99.835938 C 33.359375 99.777344 33.152344 99.5625 33.109375 99.296875 L 32.957031 98.308594 C 32.953125 98.289062 32.9375 98.289062 32.929688 98.289062 C 32.925781 98.289062 32.910156 98.289062 32.90625 98.308594 Z M 32.746094 99.296875 " fill-opacity="1" fill-rule="nonzero"/></g><g fill="#858cc6" fill-opacity="1"><g transform="translate(24.85122, 78.229553)"><g><path d="M 0.832031 -0.234375 L 0.832031 0 L 3.199219 0 L 3.199219 -0.234375 C 2.613281 -0.234375 2.132812 -0.332031 2.132812 -0.632812 L 2.132812 -11.195312 L 6.628906 -0.0820312 L 6.679688 -0.0820312 L 11.128906 -11.277344 L 11.128906 -0.632812 C 11.128906 -0.332031 10.644531 -0.234375 10.0625 -0.234375 L 10.0625 0 L 12.792969 0 L 12.792969 -0.234375 C 12.210938 -0.234375 11.726562 -0.332031 11.726562 -0.632812 L 11.726562 -11.144531 C 11.726562 -11.425781 12.210938 -11.542969 12.792969 -11.542969 L 12.792969 -11.777344 L 11.0625 -11.777344 L 6.847656 -1.132812 L 2.546875 -11.777344 L 0.832031 -11.777344 L 0.832031 -11.542969 C 1.414062 -11.542969 1.882812 -11.425781 1.898438 -11.144531 L 1.898438 -0.632812 C 1.898438 -0.332031 1.414062 -0.234375 0.832031 -0.234375 Z M 0.832031 -0.234375 "/></g></g></g><g fill="#858cc6" fill-opacity="1"><g transform="translate(38.472881, 78.229553)"><g><path d="M 0.832031 -0.234375 L 0.832031 0 L 7.378906 0 L 8.027344 -1.050781 L 7.746094 -1.050781 C 7.695312 -0.949219 7.230469 -0.234375 6.746094 -0.234375 L 2.480469 -0.234375 L 2.480469 -6.414062 L 6.414062 -6.414062 C 6.578125 -6.414062 6.761719 -6.011719 6.761719 -6.011719 L 6.878906 -6.011719 L 6.878906 -7.0625 L 6.761719 -7.0625 C 6.761719 -7.0625 6.578125 -6.664062 6.414062 -6.664062 L 2.480469 -6.664062 L 2.480469 -11.527344 L 6.378906 -11.527344 C 6.730469 -11.527344 7.113281 -10.828125 7.144531 -10.761719 L 7.261719 -10.761719 L 7.261719 -11.777344 L 0.832031 -11.777344 L 0.832031 -11.527344 C 0.832031 -11.527344 1.882812 -11.527344 1.882812 -11.128906 L 1.882812 -0.632812 C 1.882812 -0.332031 1.332031 -0.25 1.03125 -0.234375 Z M 0.832031 -0.234375 "/></g></g></g><g fill="#858cc6" fill-opacity="1"><g transform="translate(47.331958, 78.229553)"><g><path d="M 3.382812 0 L 3.382812 0.015625 L 4.8125 0.015625 C 7.445312 0.015625 9.59375 -2.648438 9.59375 -5.878906 C 9.59375 -9.113281 7.445312 -11.761719 4.8125 -11.761719 L 0.832031 -11.761719 L 0.832031 -11.527344 L 1.050781 -11.527344 C 1.347656 -11.492188 1.898438 -11.410156 1.898438 -11.128906 L 1.898438 -0.632812 C 1.898438 -0.332031 1.347656 -0.25 1.050781 -0.234375 L 0.832031 -0.234375 L 0.832031 0 Z M 4.8125 -0.234375 L 3.347656 -0.234375 C 3.046875 -0.25 2.5 -0.332031 2.5 -0.632812 L 2.5 -11.128906 C 2.5 -11.410156 3.046875 -11.492188 3.347656 -11.527344 L 3.382812 -11.527344 L 3.382812 -11.511719 L 4.8125 -11.511719 L 4.8125 -11.527344 C 7.128906 -11.492188 9.011719 -8.777344 9.011719 -5.878906 C 9.011719 -3.097656 7.28125 -0.5 5.097656 -0.25 C 4.996094 -0.25 4.898438 -0.234375 4.8125 -0.234375 Z M 4.8125 -0.234375 "/></g></g></g><g fill="#858cc6" fill-opacity="1"><g transform="translate(57.756358, 78.229553)"><g><path d="M 0.832031 -0.234375 L 0.832031 0 L 3.566406 0 L 3.566406 -0.234375 L 3.347656 -0.234375 C 3.046875 -0.25 2.5 -0.332031 2.5 -0.632812 L 2.5 -11.128906 C 2.5 -11.410156 3.046875 -11.492188 3.347656 -11.527344 L 3.566406 -11.527344 L 3.566406 -11.761719 L 0.832031 -11.761719 L 0.832031 -11.527344 L 1.03125 -11.527344 C 1.347656 -11.492188 1.882812 -11.410156 1.898438 -11.128906 L 1.898438 -0.632812 C 1.898438 -0.332031 1.347656 -0.25 1.03125 -0.234375 Z M 0.832031 -0.234375 "/></g></g></g><g fill="#858cc6" fill-opacity="1"><g transform="translate(62.152594, 78.229553)"><g><path d="M 4.296875 -0.25 L 4.296875 0 L 7.03125 0 L 7.03125 -0.25 C 6.445312 -0.25 5.945312 -0.351562 5.945312 -0.648438 L 5.945312 -11.527344 L 9.578125 -11.527344 C 9.945312 -11.527344 10.3125 -10.828125 10.34375 -10.761719 L 10.476562 -10.761719 L 10.476562 -11.777344 L 0.832031 -11.777344 L 0.832031 -10.761719 L 0.964844 -10.761719 C 1 -10.828125 1.367188 -11.527344 1.730469 -11.527344 L 5.363281 -11.527344 L 5.363281 -0.648438 C 5.363281 -0.351562 4.878906 -0.25 4.296875 -0.25 Z M 4.296875 -0.25 "/></g></g></g><g fill="#858cc6" fill-opacity="1"><g transform="translate(73.459573, 78.229553)"><g><path d="M 0.832031 -0.234375 L 0.832031 0 L 3.566406 0 L 3.566406 -0.234375 C 3.03125 -0.234375 2.183594 -0.28125 2.332031 -0.632812 L 2.316406 -0.632812 L 4.046875 -5.097656 L 8.578125 -5.097656 L 10.292969 -0.632812 C 10.425781 -0.300781 9.859375 -0.234375 9.328125 -0.234375 L 9.328125 0 L 12.058594 0 L 12.058594 -0.234375 C 11.578125 -0.234375 11.128906 -0.300781 10.960938 -0.582031 L 6.628906 -11.761719 L 6.628906 -11.777344 L 6.378906 -11.777344 L 2.050781 -0.617188 C 1.882812 -0.265625 1.300781 -0.234375 0.832031 -0.234375 Z M 8.480469 -5.332031 L 4.148438 -5.332031 L 6.3125 -10.925781 Z M 8.480469 -5.332031 "/></g></g></g><g fill="#858cc6" fill-opacity="1"><g transform="translate(86.348538, 78.229553)"><g><path d="M 4.296875 -0.25 L 4.296875 0 L 7.03125 0 L 7.03125 -0.25 C 6.445312 -0.25 5.945312 -0.351562 5.945312 -0.648438 L 5.945312 -11.527344 L 9.578125 -11.527344 C 9.945312 -11.527344 10.3125 -10.828125 10.34375 -10.761719 L 10.476562 -10.761719 L 10.476562 -11.777344 L 0.832031 -11.777344 L 0.832031 -10.761719 L 0.964844 -10.761719 C 1 -10.828125 1.367188 -11.527344 1.730469 -11.527344 L 5.363281 -11.527344 L 5.363281 -0.648438 C 5.363281 -0.351562 4.878906 -0.25 4.296875 -0.25 Z M 4.296875 -0.25 "/></g></g></g><g fill="#858cc6" fill-opacity="1"><g transform="translate(97.655517, 78.229553)"><g><path d="M 0.832031 -0.234375 L 0.832031 0 L 3.566406 0 L 3.566406 -0.234375 L 3.347656 -0.234375 C 3.046875 -0.25 2.5 -0.332031 2.5 -0.632812 L 2.5 -11.128906 C 2.5 -11.410156 3.046875 -11.492188 3.347656 -11.527344 L 3.566406 -11.527344 L 3.566406 -11.761719 L 0.832031 -11.761719 L 0.832031 -11.527344 L 1.03125 -11.527344 C 1.347656 -11.492188 1.882812 -11.410156 1.898438 -11.128906 L 1.898438 -0.632812 C 1.898438 -0.332031 1.347656 -0.25 1.03125 -0.234375 Z M 0.832031 -0.234375 "/></g></g></g><g fill="#858cc6" fill-opacity="1"><g transform="translate(102.051753, 78.229553)"><g><path d="M 5.796875 0.25 L 5.945312 0.25 C 8.730469 0.25 10.910156 -2.632812 10.910156 -5.796875 C 10.910156 -8.945312 8.695312 -11.84375 5.945312 -11.84375 L 5.796875 -11.84375 C 3.066406 -11.84375 0.832031 -8.996094 0.832031 -5.796875 C 0.832031 -2.648438 3.066406 0.25 5.796875 0.25 Z M 4.382812 -0.332031 C 2.664062 -1.167969 1.433594 -3.414062 1.433594 -5.796875 C 1.433594 -8.410156 2.933594 -10.84375 4.898438 -11.460938 C 5.214844 -11.558594 5.546875 -11.59375 5.863281 -11.59375 C 6.195312 -11.59375 6.511719 -11.542969 6.847656 -11.460938 C 8.8125 -10.878906 10.292969 -8.410156 10.292969 -5.796875 C 10.292969 -3.414062 9.078125 -1.167969 7.363281 -0.332031 C 6.347656 0.101562 5.398438 0.101562 4.382812 -0.332031 Z M 4.382812 -0.332031 "/></g></g></g><g fill="#858cc6" fill-opacity="1"><g transform="translate(113.791697, 78.229553)"><g><path d="M 0.832031 -0.234375 L 0.832031 0 L 3.199219 0 L 3.199219 -0.234375 C 2.613281 -0.234375 2.132812 -0.332031 2.132812 -0.632812 L 2.132812 -11.226562 L 9.246094 0 L 9.460938 0 L 9.460938 -11.144531 C 9.460938 -11.425781 9.945312 -11.542969 10.527344 -11.542969 L 10.527344 -11.777344 L 8.164062 -11.777344 L 8.164062 -11.542969 C 8.746094 -11.542969 9.226562 -11.425781 9.226562 -11.144531 L 9.226562 -1.183594 L 2.480469 -11.777344 L 0.832031 -11.777344 L 0.832031 -11.542969 C 1.414062 -11.542969 1.882812 -11.425781 1.882812 -11.144531 L 1.882812 -0.632812 C 1.882812 -0.332031 1.414062 -0.234375 0.832031 -0.234375 Z M 0.832031 -0.234375 "/></g></g></g></svg>