<svg xmlns="http://www.w3.org/2000/svg" xmlns:xlink="http://www.w3.org/1999/xlink" width="200" zoomAndPan="magnify" viewBox="0 0 150 149.999998" height="200" preserveAspectRatio="xMidYMid meet" version="1.0"><defs><g/><clipPath id="275fd9b606"><path d="M 33 31 L 117 31 L 117 115 L 33 115 Z M 33 31 " clip-rule="nonzero"/></clipPath><clipPath id="ab626e773e"><path d="M 133.964844 88.410156 L 61.496094 133.777344 L 16.125 61.308594 L 88.597656 15.9375 Z M 133.964844 88.410156 " clip-rule="nonzero"/></clipPath><clipPath id="32e32b6705"><path d="M 133.964844 88.410156 L 61.496094 133.777344 L 16.125 61.308594 L 88.597656 15.9375 Z M 133.964844 88.410156 " clip-rule="nonzero"/></clipPath><clipPath id="1d1b912151"><path d="M 44 105 L 82 105 L 82 120 L 44 120 Z M 44 105 " clip-rule="nonzero"/></clipPath><clipPath id="1f044b13b2"><path d="M 133.964844 88.410156 L 61.496094 133.777344 L 16.125 61.308594 L 88.597656 15.9375 Z M 133.964844 88.410156 " clip-rule="nonzero"/></clipPath><clipPath id="e9ff6bf13f"><path d="M 133.964844 88.410156 L 61.496094 133.777344 L 16.125 61.308594 L 88.597656 15.9375 Z M 133.964844 88.410156 " clip-rule="nonzero"/></clipPath><clipPath id="e548a52d19"><path d="M 29 79 L 34 79 L 34 90 L 29 90 Z M 29 79 " clip-rule="nonzero"/></clipPath><clipPath id="f125cce071"><path d="M 133.964844 88.410156 L 61.496094 133.777344 L 16.125 61.308594 L 88.597656 15.9375 Z M 133.964844 88.410156 " clip-rule="nonzero"/></clipPath><clipPath id="7053ece9d2"><path d="M 133.964844 88.410156 L 61.496094 133.777344 L 16.125 61.308594 L 88.597656 15.9375 Z M 133.964844 88.410156 " clip-rule="nonzero"/></clipPath><clipPath id="3cd61ca91c"><path d="M 31 68 L 33 68 L 33 78 L 31 78 Z M 31 68 " clip-rule="nonzero"/></clipPath><clipPath id="e2c77b84b4"><path d="M 133.964844 88.410156 L 61.496094 133.777344 L 16.125 61.308594 L 88.597656 15.9375 Z M 133.964844 88.410156 " clip-rule="nonzero"/></clipPath><clipPath id="9e972b60a9"><path d="M 133.964844 88.410156 L 61.496094 133.777344 L 16.125 61.308594 L 88.597656 15.9375 Z M 133.964844 88.410156 " clip-rule="nonzero"/></clipPath><clipPath id="72a803f1ca"><path d="M 32 58 L 35 58 L 35 65 L 32 65 Z M 32 58 " clip-rule="nonzero"/></clipPath><clipPath id="dfbe2213df"><path d="M 133.964844 88.410156 L 61.496094 133.777344 L 16.125 61.308594 L 88.597656 15.9375 Z M 133.964844 88.410156 " clip-rule="nonzero"/></clipPath><clipPath id="aa3406d2e6"><path d="M 133.964844 88.410156 L 61.496094 133.777344 L 16.125 61.308594 L 88.597656 15.9375 Z M 133.964844 88.410156 " clip-rule="nonzero"/></clipPath><clipPath id="88ef0d24fe"><path d="M 33 83 L 35 83 L 35 89 L 33 89 Z M 33 83 " clip-rule="nonzero"/></clipPath><clipPath id="4664641798"><path d="M 133.964844 88.410156 L 61.496094 133.777344 L 16.125 61.308594 L 88.597656 15.9375 Z M 133.964844 88.410156 " clip-rule="nonzero"/></clipPath><clipPath id="0f694fbead"><path d="M 133.964844 88.410156 L 61.496094 133.777344 L 16.125 61.308594 L 88.597656 15.9375 Z M 133.964844 88.410156 " clip-rule="nonzero"/></clipPath><clipPath id="dccc2ec6d7"><path d="M 35 90 L 39 90 L 39 96 L 35 96 Z M 35 90 " clip-rule="nonzero"/></clipPath><clipPath id="b5b99a2965"><path d="M 133.964844 88.410156 L 61.496094 133.777344 L 16.125 61.308594 L 88.597656 15.9375 Z M 133.964844 88.410156 " clip-rule="nonzero"/></clipPath><clipPath id="fc444473d6"><path d="M 133.964844 88.410156 L 61.496094 133.777344 L 16.125 61.308594 L 88.597656 15.9375 Z M 133.964844 88.410156 " clip-rule="nonzero"/></clipPath><clipPath id="cff61ce2ee"><path d="M 32 67 L 34 67 L 34 73 L 32 73 Z M 32 67 " clip-rule="nonzero"/></clipPath><clipPath id="2f4e2e9d98"><path d="M 133.964844 88.410156 L 61.496094 133.777344 L 16.125 61.308594 L 88.597656 15.9375 Z M 133.964844 88.410156 " clip-rule="nonzero"/></clipPath><clipPath id="79c262b339"><path d="M 133.964844 88.410156 L 61.496094 133.777344 L 16.125 61.308594 L 88.597656 15.9375 Z M 133.964844 88.410156 " clip-rule="nonzero"/></clipPath><clipPath id="a7e1aca2e7"><path d="M 119 83 L 121 83 L 121 89 L 119 89 Z M 119 83 " clip-rule="nonzero"/></clipPath><clipPath id="52a3735439"><path d="M 133.964844 88.410156 L 61.496094 133.777344 L 16.125 61.308594 L 88.597656 15.9375 Z M 133.964844 88.410156 " clip-rule="nonzero"/></clipPath><clipPath id="f095d6f538"><path d="M 133.964844 88.410156 L 61.496094 133.777344 L 16.125 61.308594 L 88.597656 15.9375 Z M 133.964844 88.410156 " clip-rule="nonzero"/></clipPath><clipPath id="2280291274"><path d="M 49 106 L 52 106 L 52 109 L 49 109 Z M 49 106 " clip-rule="nonzero"/></clipPath><clipPath id="6b05080806"><path d="M 133.964844 88.410156 L 61.496094 133.777344 L 16.125 61.308594 L 88.597656 15.9375 Z M 133.964844 88.410156 " clip-rule="nonzero"/></clipPath><clipPath id="4416a12260"><path d="M 133.964844 88.410156 L 61.496094 133.777344 L 16.125 61.308594 L 88.597656 15.9375 Z M 133.964844 88.410156 " clip-rule="nonzero"/></clipPath><clipPath id="a8d4063b58"><path d="M 29 71 L 30 71 L 30 73 L 29 73 Z M 29 71 " clip-rule="nonzero"/></clipPath><clipPath id="8a158c016a"><path d="M 133.964844 88.410156 L 61.496094 133.777344 L 16.125 61.308594 L 88.597656 15.9375 Z M 133.964844 88.410156 " clip-rule="nonzero"/></clipPath><clipPath id="bd28beb02c"><path d="M 133.964844 88.410156 L 61.496094 133.777344 L 16.125 61.308594 L 88.597656 15.9375 Z M 133.964844 88.410156 " clip-rule="nonzero"/></clipPath><clipPath id="76d09ffffb"><path d="M 44 102 L 46 102 L 46 104 L 44 104 Z M 44 102 " clip-rule="nonzero"/></clipPath><clipPath id="8841785da5"><path d="M 133.964844 88.410156 L 61.496094 133.777344 L 16.125 61.308594 L 88.597656 15.9375 Z M 133.964844 88.410156 " clip-rule="nonzero"/></clipPath><clipPath id="48ba76f527"><path d="M 133.964844 88.410156 L 61.496094 133.777344 L 16.125 61.308594 L 88.597656 15.9375 Z M 133.964844 88.410156 " clip-rule="nonzero"/></clipPath><clipPath id="64118d9442"><path d="M 37 90 L 38 90 L 38 92 L 37 92 Z M 37 90 " clip-rule="nonzero"/></clipPath><clipPath id="d7dc566aca"><path d="M 133.964844 88.410156 L 61.496094 133.777344 L 16.125 61.308594 L 88.597656 15.9375 Z M 133.964844 88.410156 " clip-rule="nonzero"/></clipPath><clipPath id="d610cf3929"><path d="M 133.964844 88.410156 L 61.496094 133.777344 L 16.125 61.308594 L 88.597656 15.9375 Z M 133.964844 88.410156 " clip-rule="nonzero"/></clipPath><clipPath id="f65e676190"><path d="M 93 112 L 95 112 L 95 114 L 93 114 Z M 93 112 " clip-rule="nonzero"/></clipPath><clipPath id="0a73ae72d1"><path d="M 133.964844 88.410156 L 61.496094 133.777344 L 16.125 61.308594 L 88.597656 15.9375 Z M 133.964844 88.410156 " clip-rule="nonzero"/></clipPath><clipPath id="f126394c9f"><path d="M 133.964844 88.410156 L 61.496094 133.777344 L 16.125 61.308594 L 88.597656 15.9375 Z M 133.964844 88.410156 " clip-rule="nonzero"/></clipPath><clipPath id="b53a5fba84"><path d="M 121 73 L 122 73 L 122 75 L 121 75 Z M 121 73 " clip-rule="nonzero"/></clipPath><clipPath id="3aa7fb6b58"><path d="M 133.964844 88.410156 L 61.496094 133.777344 L 16.125 61.308594 L 88.597656 15.9375 Z M 133.964844 88.410156 " clip-rule="nonzero"/></clipPath><clipPath id="31fd6df4d9"><path d="M 133.964844 88.410156 L 61.496094 133.777344 L 16.125 61.308594 L 88.597656 15.9375 Z M 133.964844 88.410156 " clip-rule="nonzero"/></clipPath><clipPath id="a6cb858960"><path d="M 30 73 L 31 73 L 31 75 L 30 75 Z M 30 73 " clip-rule="nonzero"/></clipPath><clipPath id="4dc3a6fa2d"><path d="M 133.964844 88.410156 L 61.496094 133.777344 L 16.125 61.308594 L 88.597656 15.9375 Z M 133.964844 88.410156 " clip-rule="nonzero"/></clipPath><clipPath id="dbbcac06a9"><path d="M 133.964844 88.410156 L 61.496094 133.777344 L 16.125 61.308594 L 88.597656 15.9375 Z M 133.964844 88.410156 " clip-rule="nonzero"/></clipPath><clipPath id="182b9026ca"><path d="M 40 94 L 42 94 L 42 95 L 40 95 Z M 40 94 " clip-rule="nonzero"/></clipPath><clipPath id="acaefc757c"><path d="M 133.964844 88.410156 L 61.496094 133.777344 L 16.125 61.308594 L 88.597656 15.9375 Z M 133.964844 88.410156 " clip-rule="nonzero"/></clipPath><clipPath id="e1798b1465"><path d="M 133.964844 88.410156 L 61.496094 133.777344 L 16.125 61.308594 L 88.597656 15.9375 Z M 133.964844 88.410156 " clip-rule="nonzero"/></clipPath><clipPath id="8a3c125845"><path d="M 50 109 L 51 109 L 51 110 L 50 110 Z M 50 109 " clip-rule="nonzero"/></clipPath><clipPath id="34781db714"><path d="M 133.964844 88.410156 L 61.496094 133.777344 L 16.125 61.308594 L 88.597656 15.9375 Z M 133.964844 88.410156 " clip-rule="nonzero"/></clipPath><clipPath id="9654eac493"><path d="M 133.964844 88.410156 L 61.496094 133.777344 L 16.125 61.308594 L 88.597656 15.9375 Z M 133.964844 88.410156 " clip-rule="nonzero"/></clipPath><clipPath id="e2c4fa4d43"><path d="M 45 98 L 46 98 L 46 99 L 45 99 Z M 45 98 " clip-rule="nonzero"/></clipPath><clipPath id="16fb688b41"><path d="M 133.964844 88.410156 L 61.496094 133.777344 L 16.125 61.308594 L 88.597656 15.9375 Z M 133.964844 88.410156 " clip-rule="nonzero"/></clipPath><clipPath id="1c9af8004b"><path d="M 133.964844 88.410156 L 61.496094 133.777344 L 16.125 61.308594 L 88.597656 15.9375 Z M 133.964844 88.410156 " clip-rule="nonzero"/></clipPath><clipPath id="0c2e68a581"><path d="M 33 70 L 34 70 L 34 72 L 33 72 Z M 33 70 " clip-rule="nonzero"/></clipPath><clipPath id="99842a5e1b"><path d="M 133.964844 88.410156 L 61.496094 133.777344 L 16.125 61.308594 L 88.597656 15.9375 Z M 133.964844 88.410156 " clip-rule="nonzero"/></clipPath><clipPath id="661eb03d61"><path d="M 133.964844 88.410156 L 61.496094 133.777344 L 16.125 61.308594 L 88.597656 15.9375 Z M 133.964844 88.410156 " clip-rule="nonzero"/></clipPath><clipPath id="816ef76fbf"><path d="M 57 113 L 58 113 L 58 114 L 57 114 Z M 57 113 " clip-rule="nonzero"/></clipPath><clipPath id="96b4a30f62"><path d="M 133.964844 88.410156 L 61.496094 133.777344 L 16.125 61.308594 L 88.597656 15.9375 Z M 133.964844 88.410156 " clip-rule="nonzero"/></clipPath><clipPath id="3cabd1900d"><path d="M 133.964844 88.410156 L 61.496094 133.777344 L 16.125 61.308594 L 88.597656 15.9375 Z M 133.964844 88.410156 " clip-rule="nonzero"/></clipPath><clipPath id="8684be2e14"><path d="M 74 32 L 75 32 L 75 33 L 74 33 Z M 74 32 " clip-rule="nonzero"/></clipPath><clipPath id="e78964fc94"><path d="M 133.964844 88.410156 L 61.496094 133.777344 L 16.125 61.308594 L 88.597656 15.9375 Z M 133.964844 88.410156 " clip-rule="nonzero"/></clipPath><clipPath id="831e1d8ca8"><path d="M 133.964844 88.410156 L 61.496094 133.777344 L 16.125 61.308594 L 88.597656 15.9375 Z M 133.964844 88.410156 " clip-rule="nonzero"/></clipPath><clipPath id="f06577f527"><path d="M 35 100 L 39.539062 100 L 39.539062 106 L 35 106 Z M 35 100 " clip-rule="nonzero"/></clipPath><clipPath id="99ddf3f735"><path d="M 31.289062 103 L 37 103 L 37 109.472656 L 31.289062 109.472656 Z M 31.289062 103 " clip-rule="nonzero"/></clipPath><clipPath id="eb8adb9cbf"><path d="M 31.289062 98.222656 L 35 98.222656 L 35 102 L 31.289062 102 Z M 31.289062 98.222656 " clip-rule="nonzero"/></clipPath></defs><rect x="-15" width="180" fill="#ffffff" y="-15" height="179.999997" fill-opacity="1"/><rect x="-15" width="180" fill="#ffffff" y="-15" height="179.999997" fill-opacity="1"/><rect x="-15" width="180" fill="#858cc6" y="-15" height="179.999997" fill-opacity="1"/><g clip-path="url(#275fd9b606)"><g clip-path="url(#ab626e773e)"><g clip-path="url(#32e32b6705)"><path fill="#ffffff" d="M 103.027344 43.441406 L 103.039062 43.398438 L 102.765625 43.160156 Z M 43.3125 99.484375 C 43.121094 99.164062 43.195312 99.101562 43.535156 99.4375 C 44.007812 99.90625 44.503906 100.382812 45.023438 100.957031 C 46.078125 101.996094 47.242188 103.007812 48.355469 104.054688 C 51.644531 106.777344 55.316406 109.003906 59.234375 110.714844 L 62.097656 111.832031 L 65.054688 112.652344 C 65.859375 112.914062 66.703125 113.019531 67.511719 113.140625 C 68.371094 113.273438 69.144531 113.378906 69.746094 113.429688 C 70.351562 113.453125 70.789062 113.394531 70.960938 113.3125 C 71.199219 113.1875 71.996094 113.175781 73.242188 113.25 C 76.8125 113.25 80.382812 113.03125 83.992188 112.136719 L 85.429688 111.820312 L 86.820312 111.347656 C 87.222656 111.210938 87.597656 111.003906 87.378906 111.039062 C 87.199219 111.066406 86.960938 111.109375 86.695312 111.179688 C 86.257812 111.304688 85.773438 111.445312 85.308594 111.578125 C 81.75 112.394531 78.152344 112.867188 74.558594 112.699219 C 72.929688 112.652344 71.300781 112.433594 69.671875 112.246094 C 68.371094 111.972656 67.089844 111.78125 65.957031 111.429688 C 65.125 111.132812 64.152344 110.863281 63.203125 110.585938 C 61.800781 110.152344 60.464844 109.515625 59.09375 109.003906 C 57.804688 108.304688 56.464844 107.695312 55.21875 106.933594 C 55.132812 106.875 55.027344 106.78125 55.019531 106.761719 C 55.015625 106.738281 55.113281 106.765625 55.179688 106.804688 C 56.277344 107.480469 57.5 107.949219 58.628906 108.5625 C 60.882812 109.585938 63.175781 110.386719 65.539062 110.949219 C 66.003906 111.082031 66.484375 111.214844 66.964844 111.285156 C 71.089844 112.285156 75.382812 112.421875 79.585938 112.023438 C 80.554688 111.921875 81.546875 111.875 82.46875 111.660156 C 85.96875 111.199219 89.367188 109.929688 92.664062 108.457031 C 95.988281 106.679688 99.226562 104.671875 101.96875 102.070312 C 106.628906 97.914062 110.054688 92.496094 112.253906 86.679688 C 113.726562 82.6875 114.59375 78.457031 114.816406 74.1875 C 114.984375 69.765625 114.382812 65.292969 113.097656 61.039062 C 112.84375 60.257812 112.628906 59.460938 112.359375 58.6875 L 111.410156 56.417969 C 109.511719 52.203125 106.917969 48.28125 103.738281 44.914062 C 103.136719 44.347656 102.53125 43.773438 101.933594 43.210938 C 99.085938 40.707031 96 38.46875 92.566406 36.808594 C 91.574219 36.238281 90.5 35.8125 89.410156 35.40625 L 87.785156 34.773438 L 86.113281 34.289062 C 85 33.976562 83.894531 33.617188 82.746094 33.457031 L 81.984375 33.277344 C 82.222656 33.300781 82.445312 33.324219 82.707031 33.347656 C 83.140625 33.40625 83.601562 33.46875 84.054688 33.527344 L 83.9375 33.511719 C 85.082031 33.773438 86.257812 34.085938 87.449219 34.394531 C 88.621094 34.761719 89.773438 35.246094 90.9375 35.660156 C 91.351562 35.792969 91.710938 35.941406 92.0625 36.085938 C 92.125 36.113281 92.109375 36.070312 92.050781 36.027344 C 91.988281 35.980469 91.84375 35.890625 91.71875 35.824219 C 90.5 35.277344 89.238281 34.828125 88.007812 34.3125 C 86.558594 33.875 85.128906 33.441406 83.664062 33.132812 C 80.089844 32.425781 76.445312 32.203125 72.820312 32.394531 C 70.691406 32.621094 68.558594 32.808594 66.613281 33.398438 C 65.777344 33.621094 64.71875 33.796875 63.796875 34.144531 L 61.433594 34.90625 C 60.648438 35.160156 59.914062 35.550781 59.148438 35.863281 C 57.601562 36.460938 56.175781 37.304688 54.730469 38.113281 C 51.355469 40.167969 48.117188 42.550781 45.488281 45.515625 C 44.582031 46.367188 43.871094 47.371094 43.09375 48.332031 C 42.285156 49.269531 41.636719 50.332031 40.988281 51.40625 C 40.664062 51.96875 40.25 52.519531 39.957031 53.097656 C 38.191406 56.25 36.859375 59.695312 35.949219 63.226562 C 34.941406 67.441406 34.566406 71.734375 34.804688 75.992188 C 34.953125 77.714844 35.054688 79.398438 35.410156 81.027344 C 35.625 82.683594 36.085938 84.265625 36.535156 85.867188 C 36.859375 87.285156 37.398438 88.390625 37.554688 89.238281 C 37.761719 90.097656 37.734375 90.398438 37.1875 89.519531 C 36.976562 89.1875 36.753906 88.824219 36.601562 88.632812 C 36.296875 88.25 35.988281 87.789062 35.710938 87.144531 C 35.46875 86.484375 35.21875 85.652344 34.921875 84.574219 C 34.628906 83.636719 34.441406 82.667969 34.277344 81.675781 C 34.125 80.6875 33.847656 79.703125 33.761719 78.667969 C 33.699219 77.988281 33.640625 77.316406 33.582031 76.652344 C 33.476562 75.417969 33.539062 75.011719 33.722656 75.726562 C 33.820312 76.125 33.9375 76.59375 34.035156 76.976562 C 34.113281 77.277344 34.203125 77.003906 34.175781 76.511719 C 34.097656 75.628906 34.113281 74.746094 34.144531 73.792969 C 33.988281 70.089844 34.589844 66.378906 35.425781 62.789062 C 35.5625 62.304688 35.703125 61.800781 35.835938 61.324219 C 37.019531 56.890625 39.054688 52.796875 41.648438 49.09375 C 44.976562 44.453125 49.28125 40.546875 54.199219 37.605469 L 56.839844 36.128906 C 61.226562 33.980469 65.980469 32.628906 70.832031 32.148438 C 72.582031 31.875 74.363281 31.988281 76.128906 31.929688 C 77.011719 31.953125 77.890625 32.066406 78.773438 32.121094 C 79.652344 32.179688 80.53125 32.246094 81.390625 32.429688 C 86.199219 33.132812 90.90625 34.78125 95.179688 37.09375 C 98.835938 39.136719 102.148438 41.742188 105.054688 44.519531 C 106.085938 45.703125 107.359375 46.867188 108.292969 48.238281 C 108.6875 48.773438 109.117188 49.355469 109.476562 49.84375 C 111.082031 52.011719 112.503906 54.59375 113.625 57.257812 C 114.175781 58.324219 114.464844 59.480469 114.871094 60.601562 C 115.300781 61.71875 115.589844 62.878906 115.828125 64.054688 C 116.683594 67.394531 116.847656 70.894531 116.785156 74.320312 C 116.5 78.0625 115.878906 81.753906 114.679688 85.285156 C 114.148438 86.890625 113.464844 88.449219 112.800781 90.007812 C 111.070312 93.792969 108.726562 96.984375 106.101562 99.964844 C 105.398438 100.660156 104.703125 101.347656 104.027344 102.011719 C 100.804688 104.902344 97.082031 107.5 92.988281 109.496094 C 92.371094 109.761719 91.734375 110.035156 91.136719 110.292969 L 89.539062 111.015625 C 88.992188 111.21875 88.425781 111.386719 87.871094 111.570312 C 86.75 111.917969 85.648438 112.355469 84.472656 112.542969 C 83.648438 112.714844 82.898438 112.964844 82.902344 113.050781 C 82.902344 113.140625 83.523438 113.097656 84.289062 112.96875 C 85.605469 112.808594 86.886719 112.335938 88.1875 111.929688 C 88.808594 111.710938 89.476562 111.597656 90.070312 111.324219 C 90.613281 111.105469 90.949219 111.097656 90.542969 111.316406 C 90.082031 111.570312 89.570312 111.835938 89.003906 112.023438 C 88.738281 112.125 88.363281 112.25 88.054688 112.34375 C 87.265625 112.582031 86.484375 112.820312 85.707031 113.058594 L 83.328125 113.570312 C 81.765625 113.992188 80.152344 114.089844 78.550781 114.316406 C 77.046875 114.503906 75.460938 114.402344 73.917969 114.453125 L 69.808594 114.082031 C 68.265625 113.769531 66.773438 113.550781 65.363281 113.125 C 64.445312 112.835938 63.5 112.535156 62.539062 112.230469 C 61.574219 111.929688 60.652344 111.476562 59.691406 111.113281 C 58.554688 110.707031 57.488281 110.128906 56.441406 109.648438 C 54.847656 109 53.511719 108.066406 52.164062 107.121094 C 51.03125 106.386719 50.121094 105.546875 49.007812 104.832031 C 48.179688 104.316406 47.441406 103.628906 46.667969 102.960938 C 45.914062 102.269531 45.0625 101.652344 44.398438 100.875 C 44.035156 100.488281 43.511719 99.820312 43.3125 99.484375 " fill-opacity="1" fill-rule="nonzero"/></g></g></g><g clip-path="url(#1d1b912151)"><g clip-path="url(#1f044b13b2)"><g clip-path="url(#e9ff6bf13f)"><path fill="#ffffff" d="M 78.898438 118.816406 C 77 118.957031 75.253906 118.808594 73.785156 118.730469 C 72.4375 118.515625 70.78125 118.363281 69.027344 118.195312 C 67.847656 118.003906 66.859375 117.804688 65.964844 117.554688 C 65.164062 117.367188 64.328125 117.050781 63.398438 116.730469 C 61.804688 116.191406 61.082031 115.863281 60.839844 115.601562 C 60.769531 115.523438 60.453125 115.347656 60.125 115.183594 C 59.964844 115.101562 59.503906 114.929688 59.1875 114.8125 C 59.050781 114.761719 58.859375 114.707031 58.820312 114.707031 C 58.394531 114.664062 57.460938 114.53125 55.796875 113.648438 C 54.28125 112.867188 52.78125 112.175781 51.484375 111.214844 C 50.484375 110.492188 49.417969 109.894531 48.496094 109.058594 C 47.683594 108.382812 46.859375 107.703125 46.027344 107.011719 C 45.621094 106.671875 45.21875 106.242188 44.8125 105.882812 C 44.589844 105.675781 44.289062 105.425781 44.191406 105.371094 C 44.097656 105.316406 44.128906 105.421875 44.269531 105.574219 C 44.800781 106.121094 45.320312 106.757812 45.972656 107.316406 C 47.324219 108.394531 48.625 109.675781 50.089844 110.609375 C 51.585938 111.664062 53.089844 112.707031 54.71875 113.535156 C 56.289062 114.488281 57.976562 115.195312 59.675781 115.921875 C 60.628906 116.378906 61.71875 116.660156 62.757812 117 C 63.542969 117.234375 64.320312 117.507812 65.113281 117.710938 L 67.527344 118.222656 C 68.601562 118.472656 69.691406 118.660156 70.792969 118.746094 C 71.894531 118.851562 72.996094 119.027344 74.101562 119.0625 L 74.140625 119.046875 C 76.019531 119.027344 77.90625 119.167969 79.78125 118.917969 C 80.328125 118.859375 80.898438 118.800781 81.457031 118.738281 C 81.597656 118.722656 81.867188 118.675781 81.855469 118.667969 C 81.816406 118.640625 81.777344 118.59375 81.578125 118.605469 C 80.71875 118.671875 79.816406 118.742188 78.898438 118.816406 " fill-opacity="1" fill-rule="nonzero"/></g></g></g><g clip-path="url(#e548a52d19)"><g clip-path="url(#f125cce071)"><g clip-path="url(#7053ece9d2)"><path fill="#ffffff" d="M 33.777344 88.707031 C 33.257812 87.285156 32.933594 85.785156 32.488281 84.304688 C 32.332031 83.84375 32.234375 83.257812 32.109375 82.730469 C 31.917969 81.871094 31.671875 81.121094 31.574219 81.101562 C 31.476562 81.082031 31.515625 81.726562 31.667969 82.523438 C 31.734375 82.867188 31.8125 83.234375 31.882812 83.589844 C 31.929688 83.769531 31.953125 83.953125 32.015625 84.125 C 32.429688 85.453125 32.488281 85.929688 32.183594 85.351562 C 31.941406 84.859375 31.59375 84.234375 31.371094 83.335938 C 30.984375 81.992188 30.632812 80.902344 30.324219 80.136719 C 30.082031 79.535156 29.964844 79.199219 29.882812 79.71875 C 29.847656 79.902344 29.929688 80.414062 30.007812 80.871094 C 30.089844 81.320312 30.246094 81.964844 30.363281 82.378906 C 30.585938 83.183594 30.746094 83.515625 30.863281 83.640625 C 31.015625 83.785156 31.121094 83.996094 31.492188 84.875 C 32.492188 87.273438 32.960938 88.085938 33.847656 89.34375 C 34.027344 89.613281 33.980469 89.230469 33.777344 88.707031 " fill-opacity="1" fill-rule="nonzero"/></g></g></g><g clip-path="url(#3cd61ca91c)"><g clip-path="url(#e2c77b84b4)"><g clip-path="url(#9e972b60a9)"><path fill="#ffffff" d="M 32.640625 75.207031 C 32.558594 74.066406 32.433594 73.554688 32.328125 72.761719 C 32.265625 72.109375 32.160156 71.296875 32.304688 70.464844 C 32.351562 70.058594 32.390625 69.738281 32.429688 69.402344 C 32.441406 69.246094 32.460938 69.027344 32.46875 68.898438 C 32.476562 68.617188 32.488281 68.203125 32.46875 68.140625 C 32.296875 67.601562 31.894531 68.914062 31.675781 70.800781 C 31.605469 71.167969 31.6875 71.875 31.710938 72.175781 C 31.75 72.515625 31.8125 72.589844 31.863281 72.75 C 31.960938 73.035156 32.03125 73.59375 32.078125 74.496094 C 32.082031 75.328125 32.253906 76.164062 32.367188 76.957031 C 32.410156 77.238281 32.476562 77.503906 32.519531 77.601562 C 32.6875 77.996094 32.796875 77.875 32.820312 77.109375 C 32.835938 76.765625 32.722656 75.753906 32.640625 75.207031 " fill-opacity="1" fill-rule="nonzero"/></g></g></g><g clip-path="url(#72a803f1ca)"><g clip-path="url(#dfbe2213df)"><g clip-path="url(#aa3406d2e6)"><path fill="#ffffff" d="M 33.359375 62.796875 C 33.882812 60.652344 34.035156 59.421875 34.019531 58.75 C 34.011719 58.683594 33.835938 59.058594 33.808594 59.195312 C 33.496094 60.382812 33.191406 61.554688 32.882812 62.746094 C 32.640625 64.066406 32.675781 64.488281 32.730469 64.769531 C 32.761719 64.816406 32.785156 64.875 32.820312 64.894531 C 32.941406 64.960938 33.167969 63.929688 33.359375 62.796875 " fill-opacity="1" fill-rule="nonzero"/></g></g></g><g clip-path="url(#88ef0d24fe)"><g clip-path="url(#4664641798)"><g clip-path="url(#0f694fbead)"><path fill="#ffffff" d="M 34.46875 88.417969 C 34.554688 88.488281 34.664062 88.605469 34.664062 88.484375 C 34.636719 88.058594 34.464844 87.085938 34.164062 85.726562 C 34.113281 85.5 33.980469 85.046875 33.890625 84.804688 C 33.726562 84.390625 33.59375 84.054688 33.476562 83.765625 C 33.414062 83.734375 33.34375 83.628906 33.335938 83.707031 C 33.289062 84.199219 33.445312 85.214844 33.824219 86.800781 C 33.929688 87.320312 34.328125 88.328125 34.46875 88.417969 " fill-opacity="1" fill-rule="nonzero"/></g></g></g><g clip-path="url(#dccc2ec6d7)"><g clip-path="url(#b5b99a2965)"><g clip-path="url(#fc444473d6)"><path fill="#ffffff" d="M 36.589844 92.785156 C 36.90625 93.347656 37.4375 94.277344 37.964844 95.199219 C 38.1875 95.59375 38.421875 95.835938 38.34375 95.617188 C 38.027344 94.703125 37.308594 93.273438 36.519531 91.742188 C 36.140625 90.84375 35.585938 89.828125 35.566406 90.054688 C 35.585938 90.304688 35.769531 91.371094 36.589844 92.785156 " fill-opacity="1" fill-rule="nonzero"/></g></g></g><g clip-path="url(#cff61ce2ee)"><g clip-path="url(#2f4e2e9d98)"><g clip-path="url(#79c262b339)"><path fill="#ffffff" d="M 32.75 72.136719 C 32.773438 72.273438 32.824219 72.210938 32.839844 72.042969 C 32.875 71.695312 32.851562 71.210938 32.945312 70.695312 C 33.003906 69.925781 33.0625 69.09375 33.125 68.28125 C 33.140625 68.027344 33.128906 67.710938 33.105469 67.625 C 33.085938 67.539062 33.035156 67.609375 33 67.785156 C 32.8125 68.882812 32.503906 71.09375 32.75 72.136719 " fill-opacity="1" fill-rule="nonzero"/></g></g></g><g clip-path="url(#a7e1aca2e7)"><g clip-path="url(#52a3735439)"><g clip-path="url(#f095d6f538)"><path fill="#ffffff" d="M 120.066406 85.304688 C 119.738281 86.363281 119.480469 87.449219 119.105469 88.457031 C 119.066406 88.582031 119.050781 88.683594 119.070312 88.679688 C 119.085938 88.675781 119.152344 88.566406 119.207031 88.4375 C 119.8125 87.085938 120.070312 85.605469 120.472656 84.1875 C 120.507812 84.058594 120.511719 83.957031 120.53125 83.847656 C 120.480469 83.984375 120.4375 84.105469 120.382812 84.261719 C 120.28125 84.601562 120.171875 84.957031 120.066406 85.304688 " fill-opacity="1" fill-rule="nonzero"/></g></g></g><g clip-path="url(#2280291274)"><g clip-path="url(#6b05080806)"><g clip-path="url(#4416a12260)"><path fill="#ffffff" d="M 51.007812 108.226562 C 50.988281 108.199219 50.839844 108.09375 50.6875 107.972656 C 50.324219 107.746094 49.941406 107.414062 49.542969 107.125 C 49.441406 107.046875 49.304688 106.964844 49.265625 106.953125 C 49.164062 106.921875 49.3125 107.074219 49.648438 107.335938 C 50.046875 107.632812 50.429688 107.953125 50.855469 108.183594 C 50.933594 108.226562 51.027344 108.253906 51.007812 108.226562 " fill-opacity="1" fill-rule="nonzero"/></g></g></g><g clip-path="url(#a8d4063b58)"><g clip-path="url(#8a158c016a)"><g clip-path="url(#bd28beb02c)"><path fill="#ffffff" d="M 29.792969 71.398438 C 29.757812 71.238281 29.726562 71.328125 29.726562 71.699219 C 29.730469 71.894531 29.761719 72.148438 29.785156 72.320312 C 29.792969 72.367188 29.8125 72.269531 29.820312 72.164062 C 29.84375 71.871094 29.832031 71.597656 29.792969 71.398438 " fill-opacity="1" fill-rule="nonzero"/></g></g></g><g clip-path="url(#76d09ffffb)"><g clip-path="url(#8841785da5)"><g clip-path="url(#48ba76f527)"><path fill="#ffffff" d="M 44.578125 102.222656 C 44.644531 102.300781 44.683594 102.371094 44.777344 102.46875 C 44.984375 102.679688 45.230469 102.941406 45.4375 103.125 C 45.710938 103.375 45.789062 103.394531 45.632812 103.199219 C 45.402344 102.910156 44.980469 102.496094 44.695312 102.273438 C 44.621094 102.210938 44.617188 102.238281 44.578125 102.222656 " fill-opacity="1" fill-rule="nonzero"/></g></g></g><g clip-path="url(#64118d9442)"><g clip-path="url(#d7dc566aca)"><g clip-path="url(#d610cf3929)"><path fill="#ffffff" d="M 37.425781 91.078125 C 37.523438 91.199219 37.476562 91.027344 37.308594 90.628906 C 37.257812 90.515625 37.191406 90.414062 37.132812 90.304688 C 37.042969 90.210938 37.082031 90.363281 37.253906 90.761719 C 37.304688 90.875 37.394531 91.039062 37.425781 91.078125 " fill-opacity="1" fill-rule="nonzero"/></g></g></g><g clip-path="url(#f65e676190)"><g clip-path="url(#0a73ae72d1)"><g clip-path="url(#f126394c9f)"><path fill="#ffffff" d="M 93.992188 113.199219 C 93.878906 113.292969 94.0625 113.246094 94.453125 113.082031 C 94.585938 113.027344 94.824219 112.910156 94.851562 112.886719 C 94.957031 112.800781 94.773438 112.851562 94.394531 113.003906 C 94.257812 113.074219 94.023438 113.175781 93.992188 113.199219 " fill-opacity="1" fill-rule="nonzero"/></g></g></g><g clip-path="url(#b53a5fba84)"><g clip-path="url(#3aa7fb6b58)"><g clip-path="url(#31fd6df4d9)"><path fill="#ffffff" d="M 121.945312 74.394531 L 121.988281 74.273438 C 121.976562 73.980469 121.964844 73.6875 121.953125 73.40625 C 121.953125 73.390625 121.929688 73.480469 121.914062 73.523438 L 121.945312 74.394531 " fill-opacity="1" fill-rule="nonzero"/></g></g></g><g clip-path="url(#a6cb858960)"><g clip-path="url(#4dc3a6fa2d)"><g clip-path="url(#dbbcac06a9)"><path fill="#ffffff" d="M 30.859375 74.035156 C 30.871094 74.035156 30.894531 73.929688 30.898438 73.8125 C 30.90625 73.417969 30.886719 73.183594 30.84375 73.144531 C 30.832031 73.21875 30.808594 73.257812 30.804688 73.371094 C 30.796875 73.769531 30.816406 74.027344 30.859375 74.035156 " fill-opacity="1" fill-rule="nonzero"/></g></g></g><g clip-path="url(#182b9026ca)"><g clip-path="url(#acaefc757c)"><g clip-path="url(#e1798b1465)"><path fill="#ffffff" d="M 41.140625 94.292969 C 41.191406 94.363281 41.277344 94.453125 41.277344 94.4375 C 41.277344 94.417969 41.191406 94.285156 41.140625 94.199219 L 40.992188 94.046875 C 41.042969 94.128906 41.097656 94.222656 41.140625 94.292969 " fill-opacity="1" fill-rule="nonzero"/></g></g></g><g clip-path="url(#8a3c125845)"><g clip-path="url(#34781db714)"><g clip-path="url(#9654eac493)"><path fill="#ffffff" d="M 50.378906 109.539062 C 50.296875 109.492188 50.226562 109.46875 50.152344 109.433594 C 50.246094 109.5 50.347656 109.574219 50.429688 109.632812 C 50.511719 109.683594 50.578125 109.707031 50.652344 109.738281 C 50.558594 109.671875 50.460938 109.597656 50.378906 109.539062 " fill-opacity="1" fill-rule="nonzero"/></g></g></g><g clip-path="url(#e2c4fa4d43)"><g clip-path="url(#16fb688b41)"><g clip-path="url(#1c9af8004b)"><path fill="#ffffff" d="M 45.539062 98.8125 C 45.464844 98.714844 45.375 98.605469 45.320312 98.53125 C 45.242188 98.445312 45.132812 98.347656 45.117188 98.347656 C 45.0625 98.355469 45.191406 98.519531 45.425781 98.75 C 45.492188 98.8125 45.5 98.792969 45.539062 98.8125 " fill-opacity="1" fill-rule="nonzero"/></g></g></g><g clip-path="url(#0c2e68a581)"><g clip-path="url(#99842a5e1b)"><g clip-path="url(#661eb03d61)"><path fill="#ffffff" d="M 33.605469 70.710938 L 33.550781 70.964844 L 33.578125 71.105469 Z M 33.605469 70.710938 " fill-opacity="1" fill-rule="nonzero"/></g></g></g><g clip-path="url(#816ef76fbf)"><g clip-path="url(#96b4a30f62)"><g clip-path="url(#3cabd1900d)"><path fill="#ffffff" d="M 57.164062 113.585938 L 57.53125 113.734375 L 57.410156 113.652344 Z M 57.164062 113.585938 " fill-opacity="1" fill-rule="nonzero"/></g></g></g><g clip-path="url(#8684be2e14)"><g clip-path="url(#e78964fc94)"><g clip-path="url(#831e1d8ca8)"><path fill="#ffffff" d="M 74.386719 32.628906 L 74.597656 32.605469 L 74.25 32.605469 Z M 74.386719 32.628906 " fill-opacity="1" fill-rule="nonzero"/></g></g></g><g clip-path="url(#f06577f527)"><path fill="#ffffff" d="M 37.1875 101.695312 L 37.414062 100.234375 C 37.433594 100.136719 37.570312 100.136719 37.585938 100.234375 L 37.8125 101.695312 C 37.875 102.074219 38.164062 102.375 38.542969 102.460938 L 39.421875 102.648438 C 39.511719 102.667969 39.511719 102.792969 39.421875 102.8125 L 38.542969 103.003906 C 38.164062 103.085938 37.875 103.386719 37.8125 103.765625 L 37.585938 105.226562 C 37.570312 105.324219 37.433594 105.324219 37.414062 105.226562 L 37.1875 103.765625 C 37.128906 103.386719 36.839844 103.085938 36.457031 103.003906 L 35.578125 102.8125 C 35.488281 102.792969 35.488281 102.667969 35.578125 102.648438 L 36.457031 102.460938 C 36.839844 102.375 37.128906 102.070312 37.1875 101.695312 Z M 37.1875 101.695312 " fill-opacity="1" fill-rule="nonzero"/><path fill="#ffffff" d="M 37.5 105.332031 C 37.449219 105.332031 37.394531 105.304688 37.386719 105.238281 L 37.15625 103.773438 C 37.097656 103.40625 36.820312 103.117188 36.453125 103.035156 L 35.574219 102.847656 C 35.519531 102.835938 35.480469 102.789062 35.480469 102.734375 C 35.480469 102.679688 35.519531 102.632812 35.574219 102.621094 L 36.453125 102.433594 C 36.816406 102.355469 37.101562 102.058594 37.15625 101.695312 L 37.386719 100.234375 C 37.398438 100.167969 37.453125 100.132812 37.5 100.132812 C 37.546875 100.132812 37.605469 100.164062 37.613281 100.230469 L 37.84375 101.691406 C 37.902344 102.058594 38.179688 102.347656 38.546875 102.429688 L 39.425781 102.617188 C 39.480469 102.628906 39.519531 102.675781 39.519531 102.730469 C 39.519531 102.785156 39.480469 102.832031 39.425781 102.84375 L 38.546875 103.03125 C 38.179688 103.109375 37.898438 103.402344 37.84375 103.769531 L 37.613281 105.230469 C 37.605469 105.300781 37.550781 105.332031 37.5 105.332031 Z M 37.5 100.191406 C 37.480469 100.191406 37.453125 100.203125 37.445312 100.238281 L 37.214844 101.699219 C 37.15625 102.085938 36.851562 102.40625 36.460938 102.488281 L 35.582031 102.675781 C 35.554688 102.683594 35.539062 102.710938 35.539062 102.730469 C 35.539062 102.75 35.554688 102.777344 35.582031 102.785156 L 36.460938 102.972656 C 36.859375 103.0625 37.152344 103.371094 37.214844 103.761719 L 37.445312 105.222656 C 37.449219 105.257812 37.476562 105.269531 37.5 105.269531 C 37.527344 105.269531 37.546875 105.257812 37.554688 105.222656 L 37.785156 103.761719 C 37.84375 103.371094 38.140625 103.0625 38.539062 102.972656 L 39.417969 102.785156 C 39.449219 102.777344 39.460938 102.75 39.460938 102.730469 C 39.460938 102.710938 39.449219 102.683594 39.417969 102.675781 L 38.539062 102.488281 C 38.140625 102.402344 37.847656 102.09375 37.785156 101.699219 L 37.554688 100.238281 C 37.546875 100.203125 37.523438 100.191406 37.5 100.191406 Z M 37.5 100.191406 " fill-opacity="1" fill-rule="nonzero"/></g><g clip-path="url(#99ddf3f735)"><path fill="#ffffff" d="M 33.386719 105.042969 L 33.664062 103.257812 C 33.683594 103.140625 33.851562 103.140625 33.875 103.257812 L 34.152344 105.042969 C 34.226562 105.507812 34.582031 105.875 35.042969 105.976562 L 36.117188 106.207031 C 36.226562 106.230469 36.226562 106.382812 36.117188 106.40625 L 35.042969 106.636719 C 34.582031 106.734375 34.226562 107.105469 34.152344 107.566406 L 33.875 109.355469 C 33.855469 109.472656 33.6875 109.472656 33.664062 109.355469 L 33.386719 107.570312 C 33.3125 107.105469 32.957031 106.738281 32.496094 106.640625 L 31.421875 106.410156 C 31.3125 106.382812 31.3125 106.230469 31.421875 106.210938 L 32.496094 105.980469 C 32.957031 105.878906 33.3125 105.507812 33.386719 105.042969 Z M 33.386719 105.042969 " fill-opacity="1" fill-rule="nonzero"/><path fill="#ffffff" d="M 33.773438 109.472656 C 33.703125 109.472656 33.648438 109.425781 33.636719 109.359375 L 33.355469 107.574219 C 33.285156 107.125 32.945312 106.769531 32.492188 106.667969 L 31.417969 106.4375 C 31.339844 106.421875 31.308594 106.359375 31.3125 106.304688 C 31.3125 106.242188 31.359375 106.191406 31.421875 106.179688 L 32.496094 105.949219 C 32.945312 105.855469 33.292969 105.488281 33.359375 105.039062 L 33.640625 103.253906 C 33.652344 103.171875 33.710938 103.140625 33.773438 103.140625 C 33.839844 103.140625 33.898438 103.1875 33.910156 103.253906 L 34.191406 105.039062 C 34.265625 105.492188 34.601562 105.847656 35.058594 105.945312 L 36.128906 106.175781 C 36.207031 106.191406 36.242188 106.253906 36.234375 106.308594 C 36.234375 106.371094 36.191406 106.421875 36.125 106.433594 L 35.050781 106.664062 C 34.601562 106.761719 34.253906 107.125 34.1875 107.570312 L 33.90625 109.359375 C 33.894531 109.4375 33.832031 109.472656 33.773438 109.472656 Z M 33.414062 105.046875 C 33.34375 105.519531 32.972656 105.910156 32.5 106.007812 L 31.425781 106.238281 C 31.382812 106.246094 31.371094 106.277344 31.367188 106.304688 C 31.367188 106.335938 31.378906 106.367188 31.425781 106.375 L 32.5 106.605469 C 32.984375 106.710938 33.339844 107.085938 33.414062 107.5625 L 33.695312 109.34375 C 33.703125 109.390625 33.742188 109.40625 33.773438 109.40625 C 33.800781 109.40625 33.835938 109.390625 33.839844 109.34375 L 34.121094 107.558594 C 34.191406 107.089844 34.5625 106.703125 35.035156 106.601562 L 36.109375 106.371094 C 36.152344 106.363281 36.164062 106.335938 36.167969 106.304688 C 36.167969 106.277344 36.15625 106.242188 36.109375 106.234375 L 35.035156 106.003906 C 34.550781 105.898438 34.195312 105.523438 34.121094 105.046875 L 33.839844 103.261719 C 33.832031 103.214844 33.792969 103.199219 33.761719 103.199219 C 33.734375 103.199219 33.699219 103.214844 33.695312 103.261719 Z M 33.414062 105.046875 " fill-opacity="1" fill-rule="nonzero"/></g><g clip-path="url(#eb8adb9cbf)"><path fill="#ffffff" d="M 32.714844 99.292969 L 32.871094 98.304688 C 32.878906 98.242188 32.976562 98.242188 32.988281 98.304688 L 33.144531 99.292969 C 33.183594 99.546875 33.382812 99.753906 33.636719 99.808594 L 34.230469 99.9375 C 34.289062 99.949219 34.289062 100.039062 34.230469 100.050781 L 33.636719 100.179688 C 33.378906 100.230469 33.183594 100.433594 33.140625 100.6875 L 32.984375 101.679688 C 32.972656 101.742188 32.875 101.742188 32.867188 101.679688 L 32.714844 100.6875 C 32.675781 100.433594 32.476562 100.230469 32.222656 100.175781 L 31.628906 100.046875 C 31.570312 100.03125 31.570312 99.945312 31.628906 99.933594 L 32.222656 99.804688 C 32.476562 99.753906 32.675781 99.546875 32.714844 99.292969 Z M 32.714844 99.292969 " fill-opacity="1" fill-rule="nonzero"/><path fill="#ffffff" d="M 32.921875 101.757812 C 32.875 101.757812 32.839844 101.730469 32.835938 101.683594 L 32.679688 100.691406 C 32.648438 100.453125 32.457031 100.257812 32.214844 100.203125 L 31.621094 100.074219 C 31.578125 100.066406 31.554688 100.03125 31.554688 99.988281 C 31.554688 99.945312 31.582031 99.90625 31.621094 99.898438 L 32.214844 99.769531 C 32.457031 99.722656 32.648438 99.527344 32.679688 99.285156 L 32.839844 98.296875 C 32.84375 98.253906 32.878906 98.222656 32.925781 98.222656 C 32.972656 98.222656 33.011719 98.25 33.015625 98.296875 L 33.171875 99.289062 C 33.207031 99.527344 33.398438 99.722656 33.640625 99.777344 L 34.234375 99.90625 C 34.277344 99.917969 34.300781 99.949219 34.300781 99.996094 C 34.300781 100.039062 34.273438 100.074219 34.234375 100.082031 L 33.640625 100.210938 C 33.398438 100.257812 33.207031 100.453125 33.167969 100.695312 L 33.011719 101.6875 C 33.007812 101.722656 32.96875 101.757812 32.921875 101.757812 Z M 32.746094 99.296875 C 32.707031 99.566406 32.5 99.78125 32.226562 99.832031 L 31.632812 99.960938 C 31.617188 99.964844 31.613281 99.984375 31.613281 99.988281 C 31.613281 99.992188 31.613281 100.007812 31.632812 100.011719 L 32.226562 100.140625 C 32.496094 100.199219 32.703125 100.417969 32.746094 100.679688 L 32.898438 101.671875 C 32.902344 101.691406 32.917969 101.691406 32.921875 101.691406 C 32.925781 101.691406 32.945312 101.691406 32.949219 101.671875 L 33.105469 100.679688 C 33.152344 100.414062 33.359375 100.195312 33.628906 100.144531 L 34.222656 100.015625 C 34.238281 100.011719 34.242188 99.996094 34.242188 99.992188 C 34.242188 99.988281 34.242188 99.96875 34.222656 99.964844 L 33.628906 99.835938 C 33.359375 99.777344 33.152344 99.5625 33.109375 99.296875 L 32.957031 98.308594 C 32.953125 98.289062 32.9375 98.289062 32.929688 98.289062 C 32.925781 98.289062 32.910156 98.289062 32.90625 98.308594 Z M 32.746094 99.296875 " fill-opacity="1" fill-rule="nonzero"/></g><g fill="#ffffff" fill-opacity="1"><g transform="translate(39.921531, 73.47954)"><g><path d="M 0.582031 -0.164062 L 0.582031 0 L 2.238281 0 L 2.238281 -0.164062 C 1.828125 -0.164062 1.492188 -0.234375 1.492188 -0.441406 L 1.492188 -7.832031 L 4.640625 -0.0585938 L 4.671875 -0.0585938 L 7.785156 -7.890625 L 7.785156 -0.441406 C 7.785156 -0.234375 7.449219 -0.164062 7.039062 -0.164062 L 7.039062 0 L 8.949219 0 L 8.949219 -0.164062 C 8.542969 -0.164062 8.207031 -0.234375 8.207031 -0.441406 L 8.207031 -7.796875 C 8.207031 -7.996094 8.542969 -8.078125 8.949219 -8.078125 L 8.949219 -8.238281 L 7.738281 -8.238281 L 4.789062 -0.792969 L 1.785156 -8.238281 L 0.582031 -8.238281 L 0.582031 -8.078125 C 0.992188 -8.078125 1.316406 -7.996094 1.328125 -7.796875 L 1.328125 -0.441406 C 1.328125 -0.234375 0.992188 -0.164062 0.582031 -0.164062 Z M 0.582031 -0.164062 "/></g></g></g><g fill="#ffffff" fill-opacity="1"><g transform="translate(49.449985, 73.47954)"><g><path d="M 0.582031 -0.164062 L 0.582031 0 L 5.164062 0 L 5.617188 -0.734375 L 5.417969 -0.734375 C 5.382812 -0.664062 5.058594 -0.164062 4.71875 -0.164062 L 1.738281 -0.164062 L 1.738281 -4.488281 L 4.488281 -4.488281 C 4.605469 -4.488281 4.730469 -4.207031 4.730469 -4.207031 L 4.8125 -4.207031 L 4.8125 -4.941406 L 4.730469 -4.941406 C 4.730469 -4.941406 4.605469 -4.660156 4.488281 -4.660156 L 1.738281 -4.660156 L 1.738281 -8.066406 L 4.464844 -8.066406 C 4.707031 -8.066406 4.976562 -7.574219 5 -7.527344 L 5.082031 -7.527344 L 5.082031 -8.238281 L 0.582031 -8.238281 L 0.582031 -8.066406 C 0.582031 -8.066406 1.316406 -8.066406 1.316406 -7.785156 L 1.316406 -0.441406 C 1.316406 -0.234375 0.933594 -0.175781 0.722656 -0.164062 Z M 0.582031 -0.164062 "/></g></g></g><g fill="#ffffff" fill-opacity="1"><g transform="translate(55.646971, 73.47954)"><g><path d="M 2.367188 0 L 2.367188 0.0117188 L 3.367188 0.0117188 C 5.210938 0.0117188 6.714844 -1.851562 6.714844 -4.113281 C 6.714844 -6.375 5.210938 -8.226562 3.367188 -8.226562 L 0.582031 -8.226562 L 0.582031 -8.066406 L 0.734375 -8.066406 C 0.945312 -8.042969 1.328125 -7.984375 1.328125 -7.785156 L 1.328125 -0.441406 C 1.328125 -0.234375 0.945312 -0.175781 0.734375 -0.164062 L 0.582031 -0.164062 L 0.582031 0 Z M 3.367188 -0.164062 L 2.34375 -0.164062 C 2.132812 -0.175781 1.75 -0.234375 1.75 -0.441406 L 1.75 -7.785156 C 1.75 -7.984375 2.132812 -8.042969 2.34375 -8.066406 L 2.367188 -8.066406 L 2.367188 -8.054688 L 3.367188 -8.054688 L 3.367188 -8.066406 C 4.988281 -8.042969 6.304688 -6.140625 6.304688 -4.113281 C 6.304688 -2.167969 5.09375 -0.351562 3.566406 -0.175781 C 3.496094 -0.175781 3.425781 -0.164062 3.367188 -0.164062 Z M 3.367188 -0.164062 "/></g></g></g><g fill="#ffffff" fill-opacity="1"><g transform="translate(62.938917, 73.47954)"><g><path d="M 0.582031 -0.164062 L 0.582031 0 L 2.496094 0 L 2.496094 -0.164062 L 2.34375 -0.164062 C 2.132812 -0.175781 1.75 -0.234375 1.75 -0.441406 L 1.75 -7.785156 C 1.75 -7.984375 2.132812 -8.042969 2.34375 -8.066406 L 2.496094 -8.066406 L 2.496094 -8.226562 L 0.582031 -8.226562 L 0.582031 -8.066406 L 0.722656 -8.066406 C 0.945312 -8.042969 1.316406 -7.984375 1.328125 -7.785156 L 1.328125 -0.441406 C 1.328125 -0.234375 0.945312 -0.175781 0.722656 -0.164062 Z M 0.582031 -0.164062 "/></g></g></g><g fill="#ffffff" fill-opacity="1"><g transform="translate(66.014116, 73.47954)"><g><path d="M 3.007812 -0.175781 L 3.007812 0 L 4.917969 0 L 4.917969 -0.175781 C 4.511719 -0.175781 4.160156 -0.246094 4.160156 -0.453125 L 4.160156 -8.066406 L 6.703125 -8.066406 C 6.957031 -8.066406 7.214844 -7.574219 7.238281 -7.527344 L 7.332031 -7.527344 L 7.332031 -8.238281 L 0.582031 -8.238281 L 0.582031 -7.527344 L 0.675781 -7.527344 C 0.699219 -7.574219 0.957031 -8.066406 1.210938 -8.066406 L 3.753906 -8.066406 L 3.753906 -0.453125 C 3.753906 -0.246094 3.414062 -0.175781 3.007812 -0.175781 Z M 3.007812 -0.175781 "/></g></g></g><g fill="#ffffff" fill-opacity="1"><g transform="translate(73.923437, 73.47954)"><g><path d="M 0.582031 -0.164062 L 0.582031 0 L 2.496094 0 L 2.496094 -0.164062 C 2.121094 -0.164062 1.527344 -0.199219 1.632812 -0.441406 L 1.621094 -0.441406 L 2.832031 -3.566406 L 6.003906 -3.566406 L 7.203125 -0.441406 C 7.296875 -0.210938 6.898438 -0.164062 6.527344 -0.164062 L 6.527344 0 L 8.4375 0 L 8.4375 -0.164062 C 8.101562 -0.164062 7.785156 -0.210938 7.667969 -0.40625 L 4.640625 -8.226562 L 4.640625 -8.238281 L 4.464844 -8.238281 L 1.433594 -0.429688 C 1.316406 -0.1875 0.910156 -0.164062 0.582031 -0.164062 Z M 5.933594 -3.730469 L 2.902344 -3.730469 L 4.417969 -7.644531 Z M 5.933594 -3.730469 "/></g></g></g><g fill="#ffffff" fill-opacity="1"><g transform="translate(82.939355, 73.47954)"><g><path d="M 3.007812 -0.175781 L 3.007812 0 L 4.917969 0 L 4.917969 -0.175781 C 4.511719 -0.175781 4.160156 -0.246094 4.160156 -0.453125 L 4.160156 -8.066406 L 6.703125 -8.066406 C 6.957031 -8.066406 7.214844 -7.574219 7.238281 -7.527344 L 7.332031 -7.527344 L 7.332031 -8.238281 L 0.582031 -8.238281 L 0.582031 -7.527344 L 0.675781 -7.527344 C 0.699219 -7.574219 0.957031 -8.066406 1.210938 -8.066406 L 3.753906 -8.066406 L 3.753906 -0.453125 C 3.753906 -0.246094 3.414062 -0.175781 3.007812 -0.175781 Z M 3.007812 -0.175781 "/></g></g></g><g fill="#ffffff" fill-opacity="1"><g transform="translate(90.848675, 73.47954)"><g><path d="M 0.582031 -0.164062 L 0.582031 0 L 2.496094 0 L 2.496094 -0.164062 L 2.34375 -0.164062 C 2.132812 -0.175781 1.75 -0.234375 1.75 -0.441406 L 1.75 -7.785156 C 1.75 -7.984375 2.132812 -8.042969 2.34375 -8.066406 L 2.496094 -8.066406 L 2.496094 -8.226562 L 0.582031 -8.226562 L 0.582031 -8.066406 L 0.722656 -8.066406 C 0.945312 -8.042969 1.316406 -7.984375 1.328125 -7.785156 L 1.328125 -0.441406 C 1.328125 -0.234375 0.945312 -0.175781 0.722656 -0.164062 Z M 0.582031 -0.164062 "/></g></g></g><g fill="#ffffff" fill-opacity="1"><g transform="translate(93.923874, 73.47954)"><g><path d="M 4.054688 0.175781 L 4.160156 0.175781 C 6.105469 0.175781 7.632812 -1.839844 7.632812 -4.054688 C 7.632812 -6.257812 6.082031 -8.285156 4.160156 -8.285156 L 4.054688 -8.285156 C 2.144531 -8.285156 0.582031 -6.292969 0.582031 -4.054688 C 0.582031 -1.851562 2.144531 0.175781 4.054688 0.175781 Z M 3.066406 -0.234375 C 1.863281 -0.816406 1.003906 -2.390625 1.003906 -4.054688 C 1.003906 -5.886719 2.050781 -7.585938 3.425781 -8.019531 C 3.648438 -8.089844 3.882812 -8.113281 4.101562 -8.113281 C 4.335938 -8.113281 4.558594 -8.078125 4.789062 -8.019531 C 6.164062 -7.609375 7.203125 -5.886719 7.203125 -4.054688 C 7.203125 -2.390625 6.351562 -0.816406 5.152344 -0.234375 C 4.441406 0.0703125 3.777344 0.0703125 3.066406 -0.234375 Z M 3.066406 -0.234375 "/></g></g></g><g fill="#ffffff" fill-opacity="1"><g transform="translate(102.136051, 73.47954)"><g><path d="M 0.582031 -0.164062 L 0.582031 0 L 2.238281 0 L 2.238281 -0.164062 C 1.828125 -0.164062 1.492188 -0.234375 1.492188 -0.441406 L 1.492188 -7.855469 L 6.46875 0 L 6.621094 0 L 6.621094 -7.796875 C 6.621094 -7.996094 6.957031 -8.078125 7.367188 -8.078125 L 7.367188 -8.238281 L 5.710938 -8.238281 L 5.710938 -8.078125 C 6.117188 -8.078125 6.457031 -7.996094 6.457031 -7.796875 L 6.457031 -0.828125 L 1.738281 -8.238281 L 0.582031 -8.238281 L 0.582031 -8.078125 C 0.992188 -8.078125 1.316406 -7.996094 1.316406 -7.796875 L 1.316406 -0.441406 C 1.316406 -0.234375 0.992188 -0.164062 0.582031 -0.164062 Z M 0.582031 -0.164062 "/></g></g></g></svg>